G04 Layer: TopSilkLayer*
G04 EasyEDA v6.4.7, 2020-12-07T12:31:00+11:00*
G04 abd5dd9122e84a36b54d064553817704,febe97c2bcdd4f57a3b586bf34626918,10*
G04 Gerber Generator version 0.2*
G04 Scale: 100 percent, Rotated: No, Reflected: No *
G04 Dimensions in millimeters *
G04 leading zeros omitted , absolute positions ,3 integer and 3 decimal *
%FSLAX33Y33*%
%MOMM*%
G90*
D02*

%ADD10C,0.254000*%
%ADD13C,0.599999*%
%ADD40C,0.203200*%
%ADD41C,0.202999*%
%ADD42C,0.150012*%
%ADD43C,0.200000*%
%ADD44C,0.299999*%
%ADD45C,0.399999*%
%ADD46C,0.152400*%
%ADD47C,0.076200*%

%LPD*%
G54D10*
G01X61168Y22490D02*
G01X60067Y22490D01*
G01X61168Y23991D02*
G01X60067Y23991D01*
G01X61768Y22496D02*
G01X62868Y22496D01*
G01X61768Y23996D02*
G01X62868Y23996D01*
G01X62868Y23991D02*
G01X62868Y22490D01*
G01X60068Y23991D02*
G01X60068Y22490D01*
G01X24211Y6869D02*
G01X23110Y6869D01*
G01X24211Y8370D02*
G01X23110Y8370D01*
G01X24811Y6875D02*
G01X25911Y6875D01*
G01X24811Y8375D02*
G01X25911Y8375D01*
G01X25911Y8370D02*
G01X25911Y6869D01*
G01X23111Y8370D02*
G01X23111Y6869D01*
G01X57454Y5943D02*
G01X58369Y5943D01*
G01X59740Y5943D02*
G01X60655Y5943D01*
G01X61305Y5928D02*
G01X61305Y5813D01*
G01X61305Y1044D02*
G01X61305Y929D01*
G01X56804Y929D01*
G01X56804Y1044D01*
G01X56804Y5813D02*
G01X56804Y5928D01*
G01X60655Y5943D02*
G01X61305Y5943D01*
G01X57454Y5943D02*
G01X56804Y5943D01*
G54D40*
G01X67056Y10922D02*
G01X69596Y10922D01*
G01X69596Y762D01*
G01X67056Y762D01*
G01X67056Y2667D01*
G54D41*
G01X67056Y10922D02*
G01X67056Y2667D01*
G54D40*
G01X20066Y1905D02*
G01X20066Y6985D01*
G01X12446Y6985D01*
G01X12446Y1905D01*
G01X20066Y1905D01*
G01X15197Y1905D01*
G01X12446Y4447D02*
G01X14986Y4447D01*
G01X14986Y1905D01*
G54D10*
G01X45004Y889D02*
G01X35004Y889D01*
G01X35004Y889D02*
G01X35004Y5390D01*
G01X45004Y889D02*
G01X45004Y5390D01*
G01X45004Y5390D02*
G01X35004Y5390D01*
G01X35505Y4538D02*
G01X35505Y1838D01*
G01X36003Y1341D01*
G01X44004Y1341D01*
G01X44505Y1838D01*
G01X44505Y2540D01*
G01X44508Y4839D01*
G01X44508Y4839D02*
G01X35505Y4839D01*
G01X35505Y4538D01*
G01X45004Y6350D02*
G01X35004Y6350D01*
G01X35004Y6350D02*
G01X35004Y10851D01*
G01X45004Y6350D02*
G01X45004Y10851D01*
G01X45004Y10851D02*
G01X35004Y10851D01*
G01X35505Y9999D02*
G01X35505Y7299D01*
G01X36003Y6802D01*
G01X44004Y6802D01*
G01X44505Y7299D01*
G01X44505Y8001D01*
G01X44508Y10300D01*
G01X44508Y10300D02*
G01X35505Y10300D01*
G01X35505Y9999D01*
G01X4319Y7240D02*
G01X1779Y7240D01*
G01X4319Y12320D02*
G01X1779Y12320D01*
G01X4319Y17400D02*
G01X1779Y17400D01*
G01X1779Y22480D02*
G01X4319Y22480D01*
G01X1779Y27560D02*
G01X4319Y27560D01*
G01X1779Y32640D02*
G01X4319Y32640D01*
G01X9399Y35180D02*
G01X9399Y4700D01*
G01X4319Y4700D01*
G01X4319Y35180D01*
G01X11939Y35180D02*
G01X11939Y4700D01*
G01X1779Y4700D01*
G01X1779Y35180D01*
G01X11939Y35180D01*
G01X81024Y31494D02*
G01X83564Y31494D01*
G01X81024Y26414D02*
G01X83564Y26414D01*
G01X81024Y21334D02*
G01X83564Y21334D01*
G01X83564Y16254D02*
G01X81024Y16254D01*
G01X83564Y11174D02*
G01X81024Y11174D01*
G01X83564Y6094D02*
G01X81024Y6094D01*
G01X75944Y3554D02*
G01X75944Y34034D01*
G01X81024Y34034D01*
G01X81024Y3554D01*
G01X73404Y3554D02*
G01X73404Y34034D01*
G01X83564Y34034D01*
G01X83564Y3554D01*
G01X73404Y3554D01*
G54D40*
G01X25781Y25781D02*
G01X25781Y10541D01*
G01X20701Y10541D01*
G01X20701Y25781D01*
G01X25781Y25781D01*
G54D10*
G01X28451Y31995D02*
G01X28451Y33246D01*
G01X26412Y31995D02*
G01X26412Y33246D01*
G01X28451Y30996D02*
G01X28451Y29745D01*
G01X26412Y30996D02*
G01X26412Y29745D01*
G01X28451Y33246D02*
G01X26412Y33246D01*
G01X28451Y29745D02*
G01X26412Y29745D01*
G01X34190Y37299D02*
G01X34190Y38899D01*
G01X37691Y37299D02*
G01X37691Y38900D01*
G01X35441Y39140D02*
G01X34391Y39140D01*
G01X35441Y37059D02*
G01X34391Y37059D01*
G01X36440Y39140D02*
G01X37490Y39140D01*
G01X36440Y37059D02*
G01X37490Y37059D01*
G01X37691Y37280D02*
G01X37691Y37299D01*
G01X37691Y37260D02*
G01X37691Y37299D01*
G01X37691Y38939D02*
G01X37691Y38900D01*
G01X34190Y37260D02*
G01X34190Y37299D01*
G01X34190Y38939D02*
G01X34190Y38899D01*
G01X30822Y38961D02*
G01X32422Y38961D01*
G01X30822Y35460D02*
G01X32423Y35460D01*
G01X32663Y37710D02*
G01X32663Y38760D01*
G01X30582Y37710D02*
G01X30582Y38760D01*
G01X32663Y36711D02*
G01X32663Y35661D01*
G01X30582Y36711D02*
G01X30582Y35661D01*
G01X30803Y35460D02*
G01X30822Y35460D01*
G01X30783Y35460D02*
G01X30822Y35460D01*
G01X32462Y35460D02*
G01X32423Y35460D01*
G01X30783Y38961D02*
G01X30822Y38961D01*
G01X32462Y38961D02*
G01X32422Y38961D01*
G54D42*
G01X28895Y33966D02*
G01X28895Y34867D01*
G01X29665Y33817D02*
G01X28995Y33817D01*
G01X30795Y33966D02*
G01X30795Y34867D01*
G01X30025Y33817D02*
G01X30695Y33817D01*
G01X30025Y35017D02*
G01X30695Y35017D01*
G01X29665Y35017D02*
G01X28995Y35017D01*
G01X30795Y33966D02*
G01X30795Y33917D01*
G01X30695Y33817D01*
G01X28895Y33966D02*
G01X28895Y33916D01*
G01X28995Y33817D01*
G01X28895Y34867D02*
G01X28895Y34917D01*
G01X28995Y35017D01*
G01X30795Y34867D02*
G01X30795Y34916D01*
G01X30695Y35017D01*
G54D10*
G01X18113Y33694D02*
G01X15413Y33694D01*
G01X18364Y37094D02*
G01X18364Y38394D01*
G01X15163Y37094D02*
G01X15163Y38394D01*
G01X18364Y35295D02*
G01X18364Y33995D01*
G01X15163Y35295D02*
G01X15163Y33995D01*
G01X18113Y38694D02*
G01X15413Y38694D01*
G01X18364Y33994D02*
G01X18364Y33995D01*
G01X18364Y38444D02*
G01X18364Y38394D01*
G01X15163Y38444D02*
G01X15163Y38394D01*
G01X18364Y33945D02*
G01X18364Y33994D01*
G01X15163Y33944D02*
G01X15163Y33995D01*
G01X16755Y31111D02*
G01X18006Y31111D01*
G01X16755Y33150D02*
G01X18006Y33150D01*
G01X15756Y31111D02*
G01X14505Y31111D01*
G01X15756Y33150D02*
G01X14505Y33150D01*
G01X18006Y31111D02*
G01X18006Y33150D01*
G01X14505Y31111D02*
G01X14505Y33150D01*
G01X18807Y34208D02*
G01X18807Y35309D01*
G01X20308Y34208D02*
G01X20308Y35309D01*
G01X18813Y33608D02*
G01X18813Y32508D01*
G01X20313Y33608D02*
G01X20313Y32508D01*
G01X20308Y32508D02*
G01X18807Y32508D01*
G01X20308Y35308D02*
G01X18807Y35308D01*
G01X14588Y33694D02*
G01X12589Y33694D01*
G01X14788Y37194D02*
G01X14788Y38394D01*
G01X12389Y37194D02*
G01X12389Y38394D01*
G01X14788Y35194D02*
G01X14788Y33995D01*
G01X12389Y35194D02*
G01X12389Y33995D01*
G01X14588Y38694D02*
G01X12589Y38694D01*
G01X14788Y38494D02*
G01X14788Y38394D01*
G01X12389Y38494D02*
G01X12389Y38394D01*
G01X14788Y33894D02*
G01X14788Y33995D01*
G01X12389Y33894D02*
G01X12389Y33995D01*
G01X18807Y29636D02*
G01X18807Y30737D01*
G01X20308Y29636D02*
G01X20308Y30737D01*
G01X18813Y29036D02*
G01X18813Y27936D01*
G01X20313Y29036D02*
G01X20313Y27936D01*
G01X20308Y27936D02*
G01X18807Y27936D01*
G01X20308Y30736D02*
G01X18807Y30736D01*
G01X25911Y31995D02*
G01X25911Y33246D01*
G01X23872Y31995D02*
G01X23872Y33246D01*
G01X25911Y30996D02*
G01X25911Y29745D01*
G01X23872Y30996D02*
G01X23872Y29745D01*
G01X25911Y33246D02*
G01X23872Y33246D01*
G01X25911Y29745D02*
G01X23872Y29745D01*
G01X29044Y33246D02*
G01X30644Y33246D01*
G01X29044Y29745D02*
G01X30645Y29745D01*
G01X30885Y31995D02*
G01X30885Y33045D01*
G01X28804Y31995D02*
G01X28804Y33045D01*
G01X30885Y30996D02*
G01X30885Y29946D01*
G01X28804Y30996D02*
G01X28804Y29946D01*
G01X29025Y29745D02*
G01X29044Y29745D01*
G01X29005Y29745D02*
G01X29044Y29745D01*
G01X30684Y29745D02*
G01X30645Y29745D01*
G01X29005Y33246D02*
G01X29044Y33246D01*
G01X30684Y33246D02*
G01X30644Y33246D01*
G01X24282Y37222D02*
G01X24282Y35422D01*
G01X21182Y37222D02*
G01X21182Y35422D01*
G01X27796Y33694D02*
G01X25797Y33694D01*
G01X27996Y37194D02*
G01X27996Y38394D01*
G01X25597Y37194D02*
G01X25597Y38394D01*
G01X27996Y35194D02*
G01X27996Y33995D01*
G01X25597Y35194D02*
G01X25597Y33995D01*
G01X27796Y38694D02*
G01X25797Y38694D01*
G01X27996Y38494D02*
G01X27996Y38394D01*
G01X25597Y38494D02*
G01X25597Y38394D01*
G01X27996Y33894D02*
G01X27996Y33995D01*
G01X25597Y33894D02*
G01X25597Y33995D01*
G01X20971Y32853D02*
G01X22970Y32853D01*
G01X20771Y29353D02*
G01X20771Y28153D01*
G01X23170Y29353D02*
G01X23170Y28153D01*
G01X20771Y31353D02*
G01X20771Y32552D01*
G01X23170Y31353D02*
G01X23170Y32552D01*
G01X20971Y27853D02*
G01X22970Y27853D01*
G01X20771Y28053D02*
G01X20771Y28153D01*
G01X23170Y28053D02*
G01X23170Y28153D01*
G01X20771Y32653D02*
G01X20771Y32552D01*
G01X23170Y32653D02*
G01X23170Y32552D01*
G01X42623Y28796D02*
G01X42623Y34195D01*
G01X33322Y34195D01*
G01X33322Y28796D01*
G01X42623Y28796D01*
G01X36957Y33020D02*
G01X37719Y33020D01*
G01X37719Y30353D01*
G01X36957Y30353D01*
G01X36957Y33020D01*
G01X36957Y31559D02*
G01X37719Y31559D01*
G01X37719Y30924D01*
G01X36957Y30924D01*
G01X36957Y31559D01*
G01X38227Y33020D02*
G01X38989Y33020D01*
G01X38989Y30353D01*
G01X38227Y30353D01*
G01X38227Y33020D01*
G01X38227Y31559D02*
G01X38989Y31559D01*
G01X38989Y30924D01*
G01X38227Y30924D01*
G01X38227Y31559D01*
G01X35687Y33020D02*
G01X36449Y33020D01*
G01X36449Y30353D01*
G01X35687Y30353D01*
G01X35687Y33020D01*
G01X35687Y31559D02*
G01X36449Y31559D01*
G01X36449Y30924D01*
G01X35687Y30924D01*
G01X35687Y31559D01*
G01X34417Y33020D02*
G01X35179Y33020D01*
G01X35179Y30353D01*
G01X34417Y30353D01*
G01X34417Y33020D01*
G01X34417Y31559D02*
G01X35179Y31559D01*
G01X35179Y30924D01*
G01X34417Y30924D01*
G01X34417Y31559D01*
G01X39497Y33020D02*
G01X40259Y33020D01*
G01X40259Y30353D01*
G01X39497Y30353D01*
G01X39497Y33020D01*
G01X39497Y31559D02*
G01X40259Y31559D01*
G01X40259Y30924D01*
G01X39497Y30924D01*
G01X39497Y31559D01*
G01X40767Y33020D02*
G01X41529Y33020D01*
G01X41529Y30353D01*
G01X40767Y30353D01*
G01X40767Y33020D01*
G01X40767Y31559D02*
G01X41529Y31559D01*
G01X41529Y30924D01*
G01X40767Y30924D01*
G01X40767Y31559D01*
G01X72743Y23279D02*
G01X72743Y21679D01*
G01X69242Y23279D02*
G01X69242Y21678D01*
G01X71492Y21438D02*
G01X72542Y21438D01*
G01X71492Y23519D02*
G01X72542Y23519D01*
G01X70493Y21438D02*
G01X69443Y21438D01*
G01X70493Y23519D02*
G01X69443Y23519D01*
G01X69242Y23298D02*
G01X69242Y23279D01*
G01X69242Y23318D02*
G01X69242Y23279D01*
G01X69242Y21639D02*
G01X69242Y21678D01*
G01X72743Y23318D02*
G01X72743Y23279D01*
G01X72743Y21639D02*
G01X72743Y21679D01*
G01X72743Y14008D02*
G01X72743Y12408D01*
G01X69242Y14008D02*
G01X69242Y12407D01*
G01X71492Y12167D02*
G01X72542Y12167D01*
G01X71492Y14248D02*
G01X72542Y14248D01*
G01X70493Y12167D02*
G01X69443Y12167D01*
G01X70493Y14248D02*
G01X69443Y14248D01*
G01X69242Y14027D02*
G01X69242Y14008D01*
G01X69242Y14047D02*
G01X69242Y14008D01*
G01X69242Y12368D02*
G01X69242Y12407D01*
G01X72743Y14047D02*
G01X72743Y14008D01*
G01X72743Y12368D02*
G01X72743Y12408D01*
G01X47636Y11221D02*
G01X47636Y12322D01*
G01X49137Y11221D02*
G01X49137Y12322D01*
G01X47642Y10621D02*
G01X47642Y9521D01*
G01X49142Y10621D02*
G01X49142Y9521D01*
G01X49137Y9521D02*
G01X47636Y9521D01*
G01X49137Y12321D02*
G01X47636Y12321D01*
G01X47509Y6014D02*
G01X47509Y7115D01*
G01X49010Y6014D02*
G01X49010Y7115D01*
G01X47515Y5414D02*
G01X47515Y4314D01*
G01X49015Y5414D02*
G01X49015Y4314D01*
G01X49010Y4314D02*
G01X47509Y4314D01*
G01X49010Y7114D02*
G01X47509Y7114D01*
G01X54521Y28173D02*
G01X54521Y38374D01*
G01X47002Y38374D01*
G01X47002Y28173D01*
G01X47002Y28173D02*
G01X50165Y28173D01*
G01X54521Y28173D02*
G01X51435Y28173D01*
G01X70628Y5802D02*
G01X72627Y5802D01*
G01X70428Y2302D02*
G01X70428Y1102D01*
G01X72827Y2302D02*
G01X72827Y1102D01*
G01X70428Y4302D02*
G01X70428Y5501D01*
G01X72827Y4302D02*
G01X72827Y5501D01*
G01X70628Y802D02*
G01X72627Y802D01*
G01X70428Y1002D02*
G01X70428Y1102D01*
G01X72827Y1002D02*
G01X72827Y1102D01*
G01X70428Y5602D02*
G01X70428Y5501D01*
G01X72827Y5602D02*
G01X72827Y5501D01*
G01X56828Y22181D02*
G01X64329Y22181D01*
G01X56828Y10581D02*
G01X56828Y10771D01*
G01X56828Y11834D02*
G01X56828Y12041D01*
G01X56828Y13104D02*
G01X56828Y13311D01*
G01X56828Y14374D02*
G01X56828Y14581D01*
G01X56828Y15644D02*
G01X56828Y15851D01*
G01X56828Y16914D02*
G01X56828Y17121D01*
G01X56828Y18184D02*
G01X56828Y18391D01*
G01X56828Y19454D02*
G01X56828Y19661D01*
G01X56828Y20724D02*
G01X56828Y20931D01*
G01X56828Y21994D02*
G01X56828Y22181D01*
G01X64329Y10581D02*
G01X64329Y10771D01*
G01X64329Y11834D02*
G01X64329Y12041D01*
G01X64329Y13104D02*
G01X64329Y13311D01*
G01X64329Y14374D02*
G01X64329Y14581D01*
G01X64329Y15644D02*
G01X64329Y15851D01*
G01X64329Y16914D02*
G01X64329Y17121D01*
G01X64329Y18184D02*
G01X64329Y18391D01*
G01X64329Y19454D02*
G01X64329Y19661D01*
G01X64329Y20724D02*
G01X64329Y20931D01*
G01X64329Y21994D02*
G01X64329Y22181D01*
G01X56828Y10581D02*
G01X59728Y10581D01*
G01X64329Y10581D02*
G01X61429Y10581D01*
G01X66930Y37400D02*
G01X66930Y38949D01*
G01X64898Y38949D01*
G01X64898Y37400D01*
G01X66955Y36612D02*
G01X66955Y35139D01*
G01X66549Y34733D01*
G01X65279Y34733D01*
G01X64898Y35114D01*
G01X64898Y36638D01*
G01X66414Y37174D02*
G01X65413Y37174D01*
G01X65413Y37174D01*
G01X65914Y36673D01*
G01X65914Y36673D01*
G01X66414Y37174D01*
G01X66714Y34974D02*
G01X65114Y34974D01*
G01X60199Y37400D02*
G01X60199Y38949D01*
G01X58167Y38949D01*
G01X58167Y37400D01*
G01X60224Y36612D02*
G01X60224Y35139D01*
G01X59818Y34733D01*
G01X58548Y34733D01*
G01X58167Y35114D01*
G01X58167Y36638D01*
G01X59683Y37174D02*
G01X58682Y37174D01*
G01X58682Y37174D01*
G01X59183Y36673D01*
G01X59183Y36673D01*
G01X59683Y37174D01*
G01X59983Y34974D02*
G01X58383Y34974D01*
G54D43*
G01X70744Y14925D02*
G01X71241Y14925D01*
G01X69293Y16824D02*
G01X69293Y18227D01*
G01X72692Y16824D02*
G01X72692Y18227D01*
G01X70744Y20126D02*
G01X71241Y20126D01*
G54D10*
G01X62368Y37764D02*
G01X62368Y38865D01*
G01X63869Y37764D02*
G01X63869Y38865D01*
G01X62374Y37164D02*
G01X62374Y36064D01*
G01X63874Y37164D02*
G01X63874Y36064D01*
G01X63869Y36064D02*
G01X62368Y36064D01*
G01X63869Y38864D02*
G01X62368Y38864D01*
G01X60590Y37764D02*
G01X60590Y38865D01*
G01X62091Y37764D02*
G01X62091Y38865D01*
G01X60596Y37164D02*
G01X60596Y36064D01*
G01X62096Y37164D02*
G01X62096Y36064D01*
G01X62091Y36064D02*
G01X60590Y36064D01*
G01X62091Y38864D02*
G01X60590Y38864D01*
G01X31856Y14439D02*
G01X42057Y14439D01*
G01X42057Y21958D01*
G01X31856Y21958D01*
G01X31856Y21958D02*
G01X31856Y18796D01*
G01X31856Y14439D02*
G01X31856Y17526D01*
G01X24158Y4700D02*
G01X24116Y4700D01*
G01X25159Y4700D02*
G01X25117Y4700D01*
G01X26137Y4700D02*
G01X26118Y4700D01*
G01X24156Y1700D02*
G01X24118Y1700D01*
G01X25157Y1700D02*
G01X25119Y1700D01*
G01X26137Y1700D02*
G01X26119Y1700D01*
G01X23181Y4700D02*
G01X23134Y4700D01*
G01X26137Y4700D02*
G01X26094Y4700D01*
G01X23181Y1700D02*
G01X23134Y1700D01*
G01X26137Y1700D02*
G01X26094Y1700D01*
G01X23134Y4701D02*
G01X23134Y1701D01*
G01X26134Y4701D02*
G01X26134Y1701D01*
G54D40*
G01X68453Y27813D02*
G01X68453Y25908D01*
G01X70993Y25908D01*
G01X70993Y33528D01*
G01X68453Y33528D01*
G54D41*
G01X68453Y33528D02*
G01X68453Y27813D01*
G54D10*
G01X13621Y26629D02*
G01X13621Y26485D01*
G01X13621Y25584D02*
G01X13621Y25215D01*
G01X17620Y26629D02*
G01X17620Y26485D01*
G01X17620Y25584D02*
G01X17620Y25215D01*
G01X17620Y24314D02*
G01X17620Y23945D01*
G01X17620Y23044D02*
G01X17620Y22675D01*
G01X15041Y26629D02*
G01X13621Y26629D01*
G01X13621Y24314D02*
G01X13621Y23945D01*
G01X13621Y23044D02*
G01X13621Y22675D01*
G01X13621Y21774D02*
G01X13621Y21630D01*
G01X17620Y26629D02*
G01X16220Y26629D01*
G01X17621Y21630D02*
G01X13621Y21630D01*
G01X17621Y21774D02*
G01X17621Y21630D01*
G01X13621Y17231D02*
G01X13621Y17087D01*
G01X13621Y16186D02*
G01X13621Y15817D01*
G01X17620Y17231D02*
G01X17620Y17087D01*
G01X17620Y16186D02*
G01X17620Y15817D01*
G01X17620Y14916D02*
G01X17620Y14547D01*
G01X17620Y13646D02*
G01X17620Y13277D01*
G01X15041Y17231D02*
G01X13621Y17231D01*
G01X13621Y14916D02*
G01X13621Y14547D01*
G01X13621Y13646D02*
G01X13621Y13277D01*
G01X13621Y12376D02*
G01X13621Y12232D01*
G01X17620Y17231D02*
G01X16220Y17231D01*
G01X17621Y12232D02*
G01X13621Y12232D01*
G01X17621Y12376D02*
G01X17621Y12232D01*
G01X62829Y32207D02*
G01X63929Y32207D01*
G01X63929Y27218D01*
G01X63929Y27218D02*
G01X60558Y27218D01*
G01X60558Y27218D02*
G01X60558Y32207D01*
G01X61649Y32207D01*
G01X81245Y39129D02*
G01X70646Y39129D01*
G01X70645Y39629D02*
G01X81246Y39629D01*
G01X81246Y34831D01*
G01X70645Y34831D01*
G01X70645Y39624D01*
G01X70645Y39629D01*
G01X4445Y38100D02*
G01X9525Y38100D01*
G01X9525Y35560D01*
G01X4445Y35560D01*
G01X4445Y38100D01*
G01X48045Y27615D02*
G01X48045Y25216D01*
G01X51545Y25216D02*
G01X53045Y25216D01*
G01X51545Y27615D02*
G01X53045Y27615D01*
G01X49545Y25216D02*
G01X48045Y25216D01*
G01X49545Y27615D02*
G01X48045Y27615D01*
G01X53045Y27615D02*
G01X53045Y25216D01*
G54D40*
G01X65443Y6469D02*
G01X64988Y6469D01*
G01X64942Y6060D01*
G01X64988Y6106D01*
G01X65123Y6151D01*
G01X65260Y6151D01*
G01X65397Y6106D01*
G01X65488Y6014D01*
G01X65534Y5880D01*
G01X65534Y5788D01*
G01X65488Y5651D01*
G01X65397Y5560D01*
G01X65260Y5514D01*
G01X65123Y5514D01*
G01X64988Y5560D01*
G01X64942Y5605D01*
G01X64897Y5697D01*
G01X65834Y6469D02*
G01X66197Y5514D01*
G01X66560Y6469D02*
G01X66197Y5514D01*
G01X70104Y35505D02*
G01X70104Y36460D01*
G01X70104Y35505D02*
G01X69740Y36460D01*
G01X69377Y35505D02*
G01X69740Y36460D01*
G01X69377Y35505D02*
G01X69377Y36460D01*
G01X68394Y35731D02*
G01X68440Y35640D01*
G01X68531Y35551D01*
G01X68623Y35505D01*
G01X68803Y35505D01*
G01X68894Y35551D01*
G01X68986Y35640D01*
G01X69032Y35731D01*
G01X69077Y35868D01*
G01X69077Y36094D01*
G01X69032Y36232D01*
G01X68986Y36323D01*
G01X68894Y36414D01*
G01X68803Y36460D01*
G01X68623Y36460D01*
G01X68531Y36414D01*
G01X68440Y36323D01*
G01X68394Y36232D01*
G01X68094Y35505D02*
G01X68094Y36186D01*
G01X68049Y36323D01*
G01X67957Y36414D01*
G01X67823Y36460D01*
G01X67731Y36460D01*
G01X67594Y36414D01*
G01X67503Y36323D01*
G01X67457Y36186D01*
G01X67457Y35505D01*
G01X70104Y37519D02*
G01X70104Y38474D01*
G01X70104Y37519D02*
G01X69695Y37519D01*
G01X69557Y37565D01*
G01X69512Y37611D01*
G01X69466Y37702D01*
G01X69466Y37839D01*
G01X69512Y37928D01*
G01X69557Y37974D01*
G01X69695Y38020D01*
G01X70104Y38020D01*
G01X69166Y37519D02*
G01X68940Y38474D01*
G01X68712Y37519D02*
G01X68940Y38474D01*
G01X68712Y37519D02*
G01X68486Y38474D01*
G01X68257Y37519D02*
G01X68486Y38474D01*
G01X67957Y37519D02*
G01X67957Y38474D01*
G01X67957Y37519D02*
G01X67548Y37519D01*
G01X67414Y37565D01*
G01X67368Y37611D01*
G01X67322Y37702D01*
G01X67322Y37794D01*
G01X67368Y37885D01*
G01X67414Y37928D01*
G01X67548Y37974D01*
G01X67957Y37974D01*
G01X67640Y37974D02*
G01X67322Y38474D01*
G01X49969Y14391D02*
G01X49928Y14391D01*
G01X49847Y14432D01*
G01X49806Y14472D01*
G01X49763Y14556D01*
G01X49763Y14719D01*
G01X49806Y14800D01*
G01X49847Y14841D01*
G01X49928Y14881D01*
G01X50010Y14881D01*
G01X50091Y14841D01*
G01X50215Y14759D01*
G01X50624Y14351D01*
G01X50624Y14922D01*
G01X49763Y15438D02*
G01X49806Y15316D01*
G01X49928Y15234D01*
G01X50131Y15194D01*
G01X50256Y15194D01*
G01X50459Y15234D01*
G01X50584Y15316D01*
G01X50624Y15438D01*
G01X50624Y15521D01*
G01X50584Y15643D01*
G01X50459Y15725D01*
G01X50256Y15765D01*
G01X50131Y15765D01*
G01X49928Y15725D01*
G01X49806Y15643D01*
G01X49763Y15521D01*
G01X49763Y15438D01*
G01X49969Y16078D02*
G01X49928Y16078D01*
G01X49847Y16118D01*
G01X49806Y16159D01*
G01X49763Y16240D01*
G01X49763Y16405D01*
G01X49806Y16487D01*
G01X49847Y16527D01*
G01X49928Y16568D01*
G01X50010Y16568D01*
G01X50091Y16527D01*
G01X50215Y16446D01*
G01X50624Y16037D01*
G01X50624Y16609D01*
G01X49763Y17124D02*
G01X49806Y17002D01*
G01X49928Y16918D01*
G01X50131Y16878D01*
G01X50256Y16878D01*
G01X50459Y16918D01*
G01X50584Y17002D01*
G01X50624Y17124D01*
G01X50624Y17205D01*
G01X50584Y17330D01*
G01X50459Y17411D01*
G01X50256Y17452D01*
G01X50131Y17452D01*
G01X49928Y17411D01*
G01X49806Y17330D01*
G01X49763Y17205D01*
G01X49763Y17124D01*
G01X49928Y17721D02*
G01X49888Y17802D01*
G01X49763Y17927D01*
G01X50624Y17927D01*
G01X49969Y18237D02*
G01X49928Y18237D01*
G01X49847Y18277D01*
G01X49806Y18318D01*
G01X49763Y18399D01*
G01X49763Y18564D01*
G01X49806Y18646D01*
G01X49847Y18686D01*
G01X49928Y18727D01*
G01X50010Y18727D01*
G01X50091Y18686D01*
G01X50215Y18605D01*
G01X50624Y18196D01*
G01X50624Y18768D01*
G01X49763Y19283D02*
G01X49806Y19161D01*
G01X49928Y19080D01*
G01X50131Y19039D01*
G01X50256Y19039D01*
G01X50459Y19080D01*
G01X50584Y19161D01*
G01X50624Y19283D01*
G01X50624Y19367D01*
G01X50584Y19489D01*
G01X50459Y19570D01*
G01X50256Y19611D01*
G01X50131Y19611D01*
G01X49928Y19570D01*
G01X49806Y19489D01*
G01X49763Y19367D01*
G01X49763Y19283D01*
G01X49888Y20373D02*
G01X49806Y20332D01*
G01X49763Y20208D01*
G01X49763Y20126D01*
G01X49806Y20005D01*
G01X49928Y19923D01*
G01X50131Y19883D01*
G01X50337Y19883D01*
G01X50500Y19923D01*
G01X50584Y20005D01*
G01X50624Y20126D01*
G01X50624Y20167D01*
G01X50584Y20292D01*
G01X50500Y20373D01*
G01X50378Y20413D01*
G01X50337Y20413D01*
G01X50215Y20373D01*
G01X50131Y20292D01*
G01X50091Y20167D01*
G01X50091Y20126D01*
G01X50131Y20005D01*
G01X50215Y19923D01*
G01X50337Y19883D01*
G01X47736Y16129D02*
G01X49072Y15621D01*
G01X47736Y16129D02*
G01X49072Y16639D01*
G01X48628Y15811D02*
G01X48628Y16449D01*
G01X47736Y17058D02*
G01X49072Y17058D01*
G01X49072Y17058D02*
G01X49072Y17823D01*
G01X47736Y18242D02*
G01X49072Y18242D01*
G01X47736Y18242D02*
G01X47736Y18816D01*
G01X47800Y19006D01*
G01X47863Y19070D01*
G01X47990Y19133D01*
G01X48181Y19133D01*
G01X48308Y19070D01*
G01X48371Y19006D01*
G01X48435Y18816D01*
G01X48435Y18242D01*
G01X47736Y19552D02*
G01X49072Y19552D01*
G01X47736Y20444D02*
G01X49072Y20444D01*
G01X48371Y19552D02*
G01X48371Y20444D01*
G01X47736Y21374D02*
G01X49072Y20863D01*
G01X47736Y21374D02*
G01X49072Y21882D01*
G01X48628Y21056D02*
G01X48628Y21691D01*
G01X42992Y26274D02*
G01X42448Y24245D01*
G01X42992Y26274D02*
G01X43669Y26092D01*
G01X43933Y25919D01*
G01X44073Y25674D01*
G01X44119Y25454D01*
G01X44137Y25139D01*
G01X44007Y24655D01*
G01X43834Y24392D01*
G01X43684Y24224D01*
G01X43441Y24084D01*
G01X43126Y24063D01*
G01X42448Y24245D01*
G01X44982Y25741D02*
G01X44438Y23712D01*
G01X45620Y25570D02*
G01X45076Y23541D01*
G01X45620Y25570D02*
G01X46488Y25337D01*
G01X46752Y25164D01*
G01X46824Y25039D01*
G01X46868Y24822D01*
G01X46816Y24629D01*
G01X46669Y24460D01*
G01X46545Y24391D01*
G01X46229Y24370D01*
G01X45361Y24603D01*
G01X46035Y24422D02*
G01X46428Y23178D01*
G01X48927Y24165D02*
G01X48884Y24385D01*
G01X48742Y24631D01*
G01X48576Y24778D01*
G01X48188Y24881D01*
G01X47969Y24838D01*
G01X47726Y24695D01*
G01X47576Y24528D01*
G01X47402Y24264D01*
G01X47273Y23780D01*
G01X47291Y23465D01*
G01X47337Y23245D01*
G01X47477Y23003D01*
G01X47645Y22852D01*
G01X48032Y22749D01*
G01X48250Y22795D01*
G01X48495Y22935D01*
G01X48643Y23103D01*
G01X48720Y23393D01*
G01X48240Y23521D02*
G01X48720Y23393D01*
G01X49695Y24478D02*
G01X49151Y22449D01*
G01X49695Y24478D02*
G01X50951Y24141D01*
G01X49436Y23511D02*
G01X50209Y23304D01*
G01X49151Y22449D02*
G01X50407Y22112D01*
G01X4318Y3921D02*
G01X4386Y3957D01*
G01X4488Y4058D01*
G01X4488Y3342D01*
G01X4747Y3888D02*
G01X4747Y3921D01*
G01X4782Y3990D01*
G01X4815Y4025D01*
G01X4884Y4058D01*
G01X5019Y4058D01*
G01X5087Y4025D01*
G01X5123Y3990D01*
G01X5156Y3921D01*
G01X5156Y3853D01*
G01X5123Y3787D01*
G01X5054Y3683D01*
G01X4714Y3342D01*
G01X5191Y3342D01*
G01X5415Y4058D02*
G01X5689Y3342D01*
G01X5961Y4058D02*
G01X5689Y3342D01*
G01X6779Y4058D02*
G01X7155Y4058D01*
G01X6949Y3787D01*
G01X7051Y3787D01*
G01X7119Y3751D01*
G01X7155Y3718D01*
G01X7188Y3614D01*
G01X7188Y3548D01*
G01X7155Y3444D01*
G01X7086Y3378D01*
G01X6985Y3342D01*
G01X6880Y3342D01*
G01X6779Y3378D01*
G01X6746Y3411D01*
G01X6710Y3479D01*
G01X7686Y4058D02*
G01X7414Y3342D01*
G01X7686Y4058D02*
G01X7957Y3342D01*
G01X7515Y3581D02*
G01X7856Y3581D01*
G01X71252Y29034D02*
G01X71285Y28966D01*
G01X71353Y28897D01*
G01X71422Y28862D01*
G01X71523Y28829D01*
G01X71696Y28829D01*
G01X71798Y28862D01*
G01X71866Y28897D01*
G01X71932Y28966D01*
G01X71968Y29034D01*
G01X71968Y29169D01*
G01X71932Y29237D01*
G01X71866Y29306D01*
G01X71798Y29339D01*
G01X71696Y29375D01*
G01X71523Y29375D01*
G01X71422Y29339D01*
G01X71353Y29306D01*
G01X71285Y29237D01*
G01X71252Y29169D01*
G01X71252Y29034D01*
G01X71252Y29598D02*
G01X71968Y29598D01*
G01X71252Y29598D02*
G01X71252Y30043D01*
G01X71592Y29598D02*
G01X71592Y29872D01*
G01X71252Y30266D02*
G01X71968Y30266D01*
G01X71252Y30266D02*
G01X71252Y30711D01*
G01X71592Y30266D02*
G01X71592Y30540D01*
G01X71252Y31460D02*
G01X71762Y31460D01*
G01X71866Y31496D01*
G01X71932Y31562D01*
G01X71968Y31666D01*
G01X71968Y31734D01*
G01X71932Y31836D01*
G01X71866Y31904D01*
G01X71762Y31937D01*
G01X71252Y31937D01*
G01X71353Y32641D02*
G01X71285Y32572D01*
G01X71252Y32468D01*
G01X71252Y32334D01*
G01X71285Y32230D01*
G01X71353Y32164D01*
G01X71422Y32164D01*
G01X71490Y32197D01*
G01X71523Y32230D01*
G01X71559Y32298D01*
G01X71628Y32504D01*
G01X71661Y32572D01*
G01X71696Y32605D01*
G01X71762Y32641D01*
G01X71866Y32641D01*
G01X71932Y32572D01*
G01X71968Y32468D01*
G01X71968Y32334D01*
G01X71932Y32230D01*
G01X71866Y32164D01*
G01X71252Y32865D02*
G01X71968Y32865D01*
G01X71252Y32865D02*
G01X71252Y33172D01*
G01X71285Y33274D01*
G01X71320Y33309D01*
G01X71389Y33342D01*
G01X71457Y33342D01*
G01X71523Y33309D01*
G01X71559Y33274D01*
G01X71592Y33172D01*
G01X71592Y32865D02*
G01X71592Y33172D01*
G01X71628Y33274D01*
G01X71661Y33309D01*
G01X71729Y33342D01*
G01X71831Y33342D01*
G01X71899Y33309D01*
G01X71932Y33274D01*
G01X71968Y33172D01*
G01X71968Y32865D01*
G01X67442Y27332D02*
G01X67442Y26992D01*
G01X67749Y26957D01*
G01X67713Y26992D01*
G01X67680Y27094D01*
G01X67680Y27195D01*
G01X67713Y27299D01*
G01X67782Y27365D01*
G01X67886Y27401D01*
G01X67952Y27401D01*
G01X68056Y27365D01*
G01X68122Y27299D01*
G01X68158Y27195D01*
G01X68158Y27094D01*
G01X68122Y26992D01*
G01X68089Y26957D01*
G01X68021Y26924D01*
G01X67442Y27625D02*
G01X68158Y27899D01*
G01X67442Y28171D02*
G01X68158Y27899D01*
G01X67851Y29446D02*
G01X67851Y30060D01*
G01X67579Y31335D02*
G01X67543Y31404D01*
G01X67442Y31506D01*
G01X68158Y31506D01*
G01X67612Y31765D02*
G01X67579Y31765D01*
G01X67510Y31798D01*
G01X67475Y31833D01*
G01X67442Y31902D01*
G01X67442Y32037D01*
G01X67475Y32105D01*
G01X67510Y32141D01*
G01X67579Y32174D01*
G01X67647Y32174D01*
G01X67713Y32141D01*
G01X67818Y32072D01*
G01X68158Y31729D01*
G01X68158Y32207D01*
G01X67442Y32433D02*
G01X68158Y32705D01*
G01X67442Y32979D02*
G01X68158Y32705D01*
G01X9525Y38574D02*
G01X9479Y38552D01*
G01X9410Y38483D01*
G01X9410Y38961D01*
G01X9237Y38597D02*
G01X9237Y38574D01*
G01X9215Y38529D01*
G01X9192Y38506D01*
G01X9146Y38483D01*
G01X9057Y38483D01*
G01X9011Y38506D01*
G01X8989Y38529D01*
G01X8966Y38574D01*
G01X8966Y38620D01*
G01X8989Y38666D01*
G01X9034Y38735D01*
G01X9260Y38961D01*
G01X8943Y38961D01*
G01X8793Y38483D02*
G01X8610Y38961D01*
G01X8430Y38483D02*
G01X8610Y38961D01*
G01X7960Y38552D02*
G01X8006Y38506D01*
G01X8074Y38483D01*
G01X8166Y38483D01*
G01X8234Y38506D01*
G01X8280Y38552D01*
G01X8280Y38597D01*
G01X8257Y38643D01*
G01X8234Y38666D01*
G01X8188Y38689D01*
G01X8051Y38735D01*
G01X8006Y38757D01*
G01X7983Y38780D01*
G01X7960Y38826D01*
G01X7960Y38892D01*
G01X8006Y38938D01*
G01X8074Y38961D01*
G01X8166Y38961D01*
G01X8234Y38938D01*
G01X8280Y38892D01*
G01X7653Y38483D02*
G01X7653Y38961D01*
G01X7810Y38483D02*
G01X7493Y38483D01*
G01X7343Y38483D02*
G01X7343Y38961D01*
G01X7343Y38483D02*
G01X7048Y38483D01*
G01X7343Y38712D02*
G01X7160Y38712D01*
G01X7343Y38961D02*
G01X7048Y38961D01*
G01X6898Y38483D02*
G01X6898Y38961D01*
G01X6898Y38483D02*
G01X6692Y38483D01*
G01X6624Y38506D01*
G01X6601Y38529D01*
G01X6578Y38574D01*
G01X6578Y38643D01*
G01X6601Y38689D01*
G01X6624Y38712D01*
G01X6692Y38735D01*
G01X6898Y38735D01*
G01X6428Y38483D02*
G01X6428Y38961D01*
G01X6428Y38483D02*
G01X6271Y38483D01*
G01X6202Y38506D01*
G01X6156Y38552D01*
G01X6134Y38597D01*
G01X6111Y38666D01*
G01X6111Y38780D01*
G01X6134Y38849D01*
G01X6156Y38892D01*
G01X6202Y38938D01*
G01X6271Y38961D01*
G01X6428Y38961D01*
G01X5824Y38483D02*
G01X5869Y38506D01*
G01X5915Y38552D01*
G01X5938Y38597D01*
G01X5961Y38666D01*
G01X5961Y38780D01*
G01X5938Y38849D01*
G01X5915Y38892D01*
G01X5869Y38938D01*
G01X5824Y38961D01*
G01X5735Y38961D01*
G01X5689Y38938D01*
G01X5643Y38892D01*
G01X5621Y38849D01*
G01X5598Y38780D01*
G01X5598Y38666D01*
G01X5621Y38597D01*
G01X5643Y38552D01*
G01X5689Y38506D01*
G01X5735Y38483D01*
G01X5824Y38483D01*
G01X5448Y38483D02*
G01X5334Y38961D01*
G01X5219Y38483D02*
G01X5334Y38961D01*
G01X5219Y38483D02*
G01X5107Y38961D01*
G01X4993Y38483D02*
G01X5107Y38961D01*
G01X4843Y38483D02*
G01X4843Y38961D01*
G01X4843Y38483D02*
G01X4523Y38961D01*
G01X4523Y38483D02*
G01X4523Y38961D01*
G01X84701Y31330D02*
G01X84701Y31785D01*
G01X84292Y31831D01*
G01X84338Y31785D01*
G01X84383Y31650D01*
G01X84383Y31513D01*
G01X84338Y31376D01*
G01X84246Y31285D01*
G01X84112Y31239D01*
G01X84020Y31239D01*
G01X83883Y31285D01*
G01X83792Y31376D01*
G01X83746Y31513D01*
G01X83746Y31650D01*
G01X83792Y31785D01*
G01X83837Y31831D01*
G01X83929Y31877D01*
G01X84701Y30939D02*
G01X83746Y30576D01*
G01X84701Y30213D02*
G01X83746Y30576D01*
G01X84475Y27132D02*
G01X84566Y27178D01*
G01X84655Y27266D01*
G01X84701Y27358D01*
G01X84701Y27541D01*
G01X84655Y27632D01*
G01X84566Y27721D01*
G01X84475Y27767D01*
G01X84338Y27813D01*
G01X84112Y27813D01*
G01X83974Y27767D01*
G01X83883Y27721D01*
G01X83792Y27632D01*
G01X83746Y27541D01*
G01X83746Y27358D01*
G01X83792Y27266D01*
G01X83883Y27178D01*
G01X83974Y27132D01*
G01X84112Y27132D01*
G01X84112Y27358D02*
G01X84112Y27132D01*
G01X84701Y26832D02*
G01X83746Y26832D01*
G01X84701Y26832D02*
G01X83746Y26195D01*
G01X84701Y26195D02*
G01X83746Y26195D01*
G01X84701Y25895D02*
G01X83746Y25895D01*
G01X84701Y25895D02*
G01X84701Y25577D01*
G01X84655Y25440D01*
G01X84566Y25349D01*
G01X84475Y25303D01*
G01X84338Y25257D01*
G01X84112Y25257D01*
G01X83974Y25303D01*
G01X83883Y25349D01*
G01X83792Y25440D01*
G01X83746Y25577D01*
G01X83746Y25895D01*
G01X84475Y22176D02*
G01X84566Y22222D01*
G01X84655Y22313D01*
G01X84701Y22405D01*
G01X84701Y22585D01*
G01X84655Y22677D01*
G01X84566Y22768D01*
G01X84475Y22814D01*
G01X84338Y22860D01*
G01X84112Y22860D01*
G01X83974Y22814D01*
G01X83883Y22768D01*
G01X83792Y22677D01*
G01X83746Y22585D01*
G01X83746Y22405D01*
G01X83792Y22313D01*
G01X83883Y22222D01*
G01X83974Y22176D01*
G01X84701Y21513D02*
G01X83746Y21877D01*
G01X84701Y21513D02*
G01X83746Y21150D01*
G01X84066Y21739D02*
G01X84066Y21285D01*
G01X84701Y20850D02*
G01X83746Y20850D01*
G01X84701Y20850D02*
G01X83746Y20213D01*
G01X84701Y20213D02*
G01X83746Y20213D01*
G01X84701Y19913D02*
G01X83746Y19913D01*
G01X84701Y19276D02*
G01X83746Y19276D01*
G01X84246Y19913D02*
G01X84246Y19276D01*
G01X84475Y17594D02*
G01X84566Y17640D01*
G01X84655Y17731D01*
G01X84701Y17823D01*
G01X84701Y18003D01*
G01X84655Y18094D01*
G01X84566Y18186D01*
G01X84475Y18232D01*
G01X84338Y18277D01*
G01X84112Y18277D01*
G01X83974Y18232D01*
G01X83883Y18186D01*
G01X83792Y18094D01*
G01X83746Y18003D01*
G01X83746Y17823D01*
G01X83792Y17731D01*
G01X83883Y17640D01*
G01X83974Y17594D01*
G01X84701Y16931D02*
G01X83746Y17294D01*
G01X84701Y16931D02*
G01X83746Y16568D01*
G01X84066Y17157D02*
G01X84066Y16703D01*
G01X84701Y16268D02*
G01X83746Y16268D01*
G01X84701Y16268D02*
G01X83746Y15631D01*
G01X84701Y15631D02*
G01X83746Y15631D01*
G01X84701Y15331D02*
G01X83746Y15331D01*
G01X83746Y15331D02*
G01X83746Y14785D01*
G01X84701Y12385D02*
G01X83746Y12385D01*
G01X84701Y12385D02*
G01X84701Y11976D01*
G01X84655Y11841D01*
G01X84609Y11795D01*
G01X84521Y11750D01*
G01X84383Y11750D01*
G01X84292Y11795D01*
G01X84246Y11841D01*
G01X84201Y11976D01*
G01X84201Y12385D01*
G01X84701Y11450D02*
G01X83746Y10812D01*
G01X84701Y10812D02*
G01X83746Y11450D01*
G01X84701Y10513D02*
G01X83746Y10513D01*
G01X84701Y10513D02*
G01X84701Y10104D01*
G01X84655Y9966D01*
G01X84609Y9921D01*
G01X84521Y9878D01*
G01X84383Y9878D01*
G01X84292Y9921D01*
G01X84246Y9966D01*
G01X84201Y10104D01*
G01X84201Y10513D01*
G01X84521Y9575D02*
G01X84566Y9486D01*
G01X84701Y9349D01*
G01X83746Y9349D01*
G01X84701Y7650D02*
G01X83746Y7650D01*
G01X84701Y7650D02*
G01X84701Y7241D01*
G01X84655Y7104D01*
G01X84609Y7058D01*
G01X84521Y7012D01*
G01X84383Y7012D01*
G01X84292Y7058D01*
G01X84246Y7104D01*
G01X84201Y7241D01*
G01X84201Y7650D01*
G01X84701Y6713D02*
G01X83746Y6078D01*
G01X84701Y6078D02*
G01X83746Y6713D01*
G01X84701Y5775D02*
G01X83746Y5775D01*
G01X84701Y5775D02*
G01X84701Y5367D01*
G01X84655Y5232D01*
G01X84609Y5186D01*
G01X84521Y5140D01*
G01X84383Y5140D01*
G01X84292Y5186D01*
G01X84246Y5232D01*
G01X84201Y5367D01*
G01X84201Y5775D01*
G01X84475Y4795D02*
G01X84521Y4795D01*
G01X84609Y4749D01*
G01X84655Y4704D01*
G01X84701Y4612D01*
G01X84701Y4432D01*
G01X84655Y4340D01*
G01X84609Y4295D01*
G01X84521Y4249D01*
G01X84429Y4249D01*
G01X84338Y4295D01*
G01X84201Y4386D01*
G01X83746Y4841D01*
G01X83746Y4203D01*
G01X650Y6479D02*
G01X561Y6388D01*
G01X515Y6250D01*
G01X515Y6068D01*
G01X561Y5933D01*
G01X650Y5842D01*
G01X741Y5842D01*
G01X833Y5887D01*
G01X878Y5933D01*
G01X924Y6024D01*
G01X1016Y6296D01*
G01X1059Y6388D01*
G01X1104Y6433D01*
G01X1196Y6479D01*
G01X1333Y6479D01*
G01X1424Y6388D01*
G01X1470Y6250D01*
G01X1470Y6068D01*
G01X1424Y5933D01*
G01X1333Y5842D01*
G01X515Y6779D02*
G01X1470Y7005D01*
G01X515Y7233D02*
G01X1470Y7005D01*
G01X515Y7233D02*
G01X1470Y7459D01*
G01X515Y7688D02*
G01X1470Y7459D01*
G01X741Y8034D02*
G01X695Y8034D01*
G01X607Y8077D01*
G01X561Y8122D01*
G01X515Y8214D01*
G01X515Y8397D01*
G01X561Y8488D01*
G01X607Y8531D01*
G01X695Y8577D01*
G01X787Y8577D01*
G01X878Y8531D01*
G01X1016Y8442D01*
G01X1470Y7988D01*
G01X1470Y8623D01*
G01X650Y9331D02*
G01X1470Y9331D01*
G01X1059Y8923D02*
G01X1059Y9740D01*
G01X1059Y11442D02*
G01X1059Y12260D01*
G01X1059Y12560D02*
G01X1059Y13378D01*
G01X741Y14361D02*
G01X650Y14315D01*
G01X561Y14224D01*
G01X515Y14132D01*
G01X515Y13952D01*
G01X561Y13860D01*
G01X650Y13769D01*
G01X741Y13723D01*
G01X878Y13677D01*
G01X1104Y13677D01*
G01X1242Y13723D01*
G01X1333Y13769D01*
G01X1424Y13860D01*
G01X1470Y13952D01*
G01X1470Y14132D01*
G01X1424Y14224D01*
G01X1333Y14315D01*
G01X1242Y14361D01*
G01X1104Y14361D01*
G01X1104Y14132D02*
G01X1104Y14361D01*
G01X515Y14660D02*
G01X1470Y14660D01*
G01X515Y14660D02*
G01X1470Y15295D01*
G01X515Y15295D02*
G01X1470Y15295D01*
G01X515Y15595D02*
G01X1470Y15595D01*
G01X515Y15595D02*
G01X515Y15915D01*
G01X561Y16050D01*
G01X650Y16141D01*
G01X741Y16187D01*
G01X878Y16233D01*
G01X1104Y16233D01*
G01X1242Y16187D01*
G01X1333Y16141D01*
G01X1424Y16050D01*
G01X1470Y15915D01*
G01X1470Y15595D01*
G01X1059Y16532D02*
G01X1059Y17350D01*
G01X1059Y17650D02*
G01X1059Y18468D01*
G01X650Y21506D02*
G01X561Y21414D01*
G01X515Y21277D01*
G01X515Y21097D01*
G01X561Y20960D01*
G01X650Y20868D01*
G01X741Y20868D01*
G01X833Y20914D01*
G01X878Y20960D01*
G01X924Y21051D01*
G01X1016Y21323D01*
G01X1059Y21414D01*
G01X1104Y21460D01*
G01X1196Y21506D01*
G01X1333Y21506D01*
G01X1424Y21414D01*
G01X1470Y21277D01*
G01X1470Y21097D01*
G01X1424Y20960D01*
G01X1333Y20868D01*
G01X515Y21805D02*
G01X1470Y22031D01*
G01X515Y22260D02*
G01X1470Y22031D01*
G01X515Y22260D02*
G01X1470Y22486D01*
G01X515Y22715D02*
G01X1470Y22486D01*
G01X695Y23014D02*
G01X650Y23106D01*
G01X515Y23241D01*
G01X1470Y23241D01*
G01X650Y23952D02*
G01X1470Y23952D01*
G01X1059Y23540D02*
G01X1059Y24361D01*
G01X741Y27442D02*
G01X650Y27396D01*
G01X561Y27305D01*
G01X515Y27213D01*
G01X515Y27033D01*
G01X561Y26941D01*
G01X650Y26850D01*
G01X741Y26804D01*
G01X878Y26758D01*
G01X1104Y26758D01*
G01X1242Y26804D01*
G01X1333Y26850D01*
G01X1424Y26941D01*
G01X1470Y27033D01*
G01X1470Y27213D01*
G01X1424Y27305D01*
G01X1333Y27396D01*
G01X1242Y27442D01*
G01X1104Y27442D01*
G01X1104Y27213D02*
G01X1104Y27442D01*
G01X515Y27741D02*
G01X1470Y27741D01*
G01X515Y27741D02*
G01X1470Y28379D01*
G01X515Y28379D02*
G01X1470Y28379D01*
G01X515Y28679D02*
G01X1470Y28679D01*
G01X515Y28679D02*
G01X515Y28996D01*
G01X561Y29133D01*
G01X650Y29222D01*
G01X741Y29268D01*
G01X878Y29314D01*
G01X1104Y29314D01*
G01X1242Y29268D01*
G01X1333Y29222D01*
G01X1424Y29133D01*
G01X1470Y28996D01*
G01X1470Y28679D01*
G01X695Y31015D02*
G01X650Y31104D01*
G01X515Y31242D01*
G01X1470Y31242D01*
G01X741Y31587D02*
G01X695Y31587D01*
G01X607Y31633D01*
G01X561Y31678D01*
G01X515Y31770D01*
G01X515Y31950D01*
G01X561Y32042D01*
G01X607Y32087D01*
G01X695Y32133D01*
G01X787Y32133D01*
G01X878Y32087D01*
G01X1016Y31996D01*
G01X1470Y31541D01*
G01X1470Y32179D01*
G01X515Y32478D02*
G01X1470Y32842D01*
G01X515Y33205D02*
G01X1470Y32842D01*
G01X650Y33914D02*
G01X1470Y33914D01*
G01X1059Y33505D02*
G01X1059Y34323D01*
G54D46*
G01X61419Y25537D02*
G01X61419Y24447D01*
G01X61419Y25537D02*
G01X61886Y25537D01*
G01X62041Y25486D01*
G01X62094Y25433D01*
G01X62145Y25328D01*
G01X62145Y25224D01*
G01X62094Y25120D01*
G01X62041Y25069D01*
G01X61886Y25019D01*
G01X61419Y25019D01*
G01X61782Y25019D02*
G01X62145Y24447D01*
G01X63113Y25382D02*
G01X63059Y25486D01*
G01X62904Y25537D01*
G01X62800Y25537D01*
G01X62645Y25486D01*
G01X62541Y25328D01*
G01X62488Y25069D01*
G01X62488Y24810D01*
G01X62541Y24602D01*
G01X62645Y24498D01*
G01X62800Y24447D01*
G01X62854Y24447D01*
G01X63009Y24498D01*
G01X63113Y24602D01*
G01X63164Y24757D01*
G01X63164Y24810D01*
G01X63113Y24965D01*
G01X63009Y25069D01*
G01X62854Y25120D01*
G01X62800Y25120D01*
G01X62645Y25069D01*
G01X62541Y24965D01*
G01X62488Y24810D01*
G01X24462Y9268D02*
G01X24462Y8790D01*
G01X24462Y9268D02*
G01X24665Y9268D01*
G01X24734Y9245D01*
G01X24757Y9222D01*
G01X24780Y9177D01*
G01X24780Y9131D01*
G01X24757Y9085D01*
G01X24734Y9062D01*
G01X24665Y9039D01*
G01X24462Y9039D01*
G01X24620Y9039D02*
G01X24780Y8790D01*
G01X25201Y9268D02*
G01X24975Y9268D01*
G01X24952Y9062D01*
G01X24975Y9085D01*
G01X25044Y9108D01*
G01X25112Y9108D01*
G01X25179Y9085D01*
G01X25224Y9039D01*
G01X25247Y8971D01*
G01X25247Y8925D01*
G01X25224Y8859D01*
G01X25179Y8813D01*
G01X25112Y8790D01*
G01X25044Y8790D01*
G01X24975Y8813D01*
G01X24952Y8836D01*
G01X24930Y8882D01*
G01X60071Y6827D02*
G01X60071Y6418D01*
G01X60098Y6337D01*
G01X60152Y6283D01*
G01X60233Y6256D01*
G01X60289Y6256D01*
G01X60370Y6283D01*
G01X60426Y6337D01*
G01X60452Y6418D01*
G01X60452Y6827D01*
G01X61015Y6827D02*
G01X60741Y6256D01*
G01X60632Y6827D02*
G01X61015Y6827D01*
G01X65648Y762D02*
G01X66428Y762D01*
G01X66583Y812D01*
G01X66687Y916D01*
G01X66738Y1074D01*
G01X66738Y1178D01*
G01X66687Y1333D01*
G01X66583Y1437D01*
G01X66428Y1488D01*
G01X65648Y1488D01*
G01X65648Y2247D02*
G01X66738Y1831D01*
G01X65648Y2247D02*
G01X66738Y2664D01*
G01X66375Y1988D02*
G01X66375Y2506D01*
G01X65648Y3007D02*
G01X66738Y3007D01*
G01X65648Y3007D02*
G01X65648Y3474D01*
G01X65699Y3629D01*
G01X65752Y3683D01*
G01X65857Y3733D01*
G01X65961Y3733D01*
G01X66065Y3683D01*
G01X66116Y3629D01*
G01X66167Y3474D01*
G01X66167Y3007D01*
G01X66167Y3370D02*
G01X66738Y3733D01*
G01X65648Y4439D02*
G01X66738Y4439D01*
G01X65648Y4076D02*
G01X65648Y4803D01*
G01X13266Y1534D02*
G01X13162Y1483D01*
G01X13058Y1379D01*
G01X13004Y1275D01*
G01X12954Y1117D01*
G01X12954Y858D01*
G01X13004Y703D01*
G01X13058Y599D01*
G01X13162Y495D01*
G01X13266Y444D01*
G01X13474Y444D01*
G01X13576Y495D01*
G01X13680Y599D01*
G01X13733Y703D01*
G01X13784Y858D01*
G01X13784Y1117D01*
G01X13733Y1275D01*
G01X13680Y1379D01*
G01X13576Y1483D01*
G01X13474Y1534D01*
G01X13266Y1534D01*
G01X14127Y1534D02*
G01X14127Y444D01*
G01X14127Y1534D02*
G01X14856Y444D01*
G01X14856Y1534D02*
G01X14856Y444D01*
G01X15199Y1534D02*
G01X15199Y444D01*
G01X15199Y1534D02*
G01X15875Y1534D01*
G01X15199Y1016D02*
G01X15613Y1016D01*
G01X15199Y444D02*
G01X15875Y444D01*
G01X16217Y1534D02*
G01X16476Y444D01*
G01X16736Y1534D02*
G01X16476Y444D01*
G01X16736Y1534D02*
G01X16995Y444D01*
G01X17256Y1534D02*
G01X16995Y444D01*
G01X17599Y1534D02*
G01X17599Y444D01*
G01X17942Y1534D02*
G01X17942Y444D01*
G01X17942Y1534D02*
G01X18409Y1534D01*
G01X18564Y1483D01*
G01X18618Y1430D01*
G01X18669Y1325D01*
G01X18669Y1221D01*
G01X18618Y1117D01*
G01X18564Y1066D01*
G01X18409Y1016D01*
G01X17942Y1016D01*
G01X18305Y1016D02*
G01X18669Y444D01*
G01X19011Y1534D02*
G01X19011Y444D01*
G01X19011Y1534D02*
G01X19687Y1534D01*
G01X19011Y1016D02*
G01X19428Y1016D01*
G01X19011Y444D02*
G01X19687Y444D01*
G01X34251Y5052D02*
G01X34305Y5080D01*
G01X34361Y5133D01*
G01X34386Y5189D01*
G01X34386Y5298D01*
G01X34361Y5351D01*
G01X34305Y5407D01*
G01X34251Y5433D01*
G01X34168Y5461D01*
G01X34033Y5461D01*
G01X33952Y5433D01*
G01X33896Y5407D01*
G01X33842Y5351D01*
G01X33815Y5298D01*
G01X33815Y5189D01*
G01X33842Y5133D01*
G01X33896Y5080D01*
G01X33952Y5052D01*
G01X34033Y5052D01*
G01X34033Y5189D02*
G01X34033Y5052D01*
G01X34386Y4871D02*
G01X33815Y4871D01*
G01X34386Y4871D02*
G01X34386Y4625D01*
G01X34361Y4544D01*
G01X34333Y4516D01*
G01X34277Y4490D01*
G01X34223Y4490D01*
G01X34168Y4516D01*
G01X34142Y4544D01*
G01X34114Y4625D01*
G01X34114Y4871D01*
G01X34114Y4681D02*
G01X33815Y4490D01*
G01X34386Y4145D02*
G01X34361Y4201D01*
G01X34305Y4254D01*
G01X34251Y4282D01*
G01X34168Y4310D01*
G01X34033Y4310D01*
G01X33952Y4282D01*
G01X33896Y4254D01*
G01X33842Y4201D01*
G01X33815Y4145D01*
G01X33815Y4038D01*
G01X33842Y3982D01*
G01X33896Y3929D01*
G01X33952Y3901D01*
G01X34033Y3873D01*
G01X34168Y3873D01*
G01X34251Y3901D01*
G01X34305Y3929D01*
G01X34361Y3982D01*
G01X34386Y4038D01*
G01X34386Y4145D01*
G01X34386Y3693D02*
G01X33815Y3474D01*
G01X34386Y3256D02*
G01X33815Y3474D01*
G01X34386Y3078D02*
G01X33815Y3078D01*
G01X34386Y3078D02*
G01X34386Y2722D01*
G01X34114Y3078D02*
G01X34114Y2860D01*
G01X33815Y3078D02*
G01X33815Y2722D01*
G01X34277Y2542D02*
G01X34305Y2489D01*
G01X34386Y2405D01*
G01X33815Y2405D01*
G01X34251Y9878D02*
G01X34305Y9906D01*
G01X34361Y9959D01*
G01X34386Y10015D01*
G01X34386Y10124D01*
G01X34361Y10177D01*
G01X34305Y10233D01*
G01X34251Y10259D01*
G01X34168Y10287D01*
G01X34033Y10287D01*
G01X33952Y10259D01*
G01X33896Y10233D01*
G01X33842Y10177D01*
G01X33815Y10124D01*
G01X33815Y10015D01*
G01X33842Y9959D01*
G01X33896Y9906D01*
G01X33952Y9878D01*
G01X34033Y9878D01*
G01X34033Y10015D02*
G01X34033Y9878D01*
G01X34386Y9697D02*
G01X33815Y9697D01*
G01X34386Y9697D02*
G01X34386Y9451D01*
G01X34361Y9370D01*
G01X34333Y9342D01*
G01X34277Y9316D01*
G01X34223Y9316D01*
G01X34168Y9342D01*
G01X34142Y9370D01*
G01X34114Y9451D01*
G01X34114Y9697D01*
G01X34114Y9507D02*
G01X33815Y9316D01*
G01X34386Y8971D02*
G01X34361Y9027D01*
G01X34305Y9080D01*
G01X34251Y9108D01*
G01X34168Y9136D01*
G01X34033Y9136D01*
G01X33952Y9108D01*
G01X33896Y9080D01*
G01X33842Y9027D01*
G01X33815Y8971D01*
G01X33815Y8864D01*
G01X33842Y8808D01*
G01X33896Y8755D01*
G01X33952Y8727D01*
G01X34033Y8699D01*
G01X34168Y8699D01*
G01X34251Y8727D01*
G01X34305Y8755D01*
G01X34361Y8808D01*
G01X34386Y8864D01*
G01X34386Y8971D01*
G01X34386Y8519D02*
G01X33815Y8300D01*
G01X34386Y8082D02*
G01X33815Y8300D01*
G01X34386Y7904D02*
G01X33815Y7904D01*
G01X34386Y7904D02*
G01X34386Y7548D01*
G01X34114Y7904D02*
G01X34114Y7686D01*
G01X33815Y7904D02*
G01X33815Y7548D01*
G01X34251Y7340D02*
G01X34277Y7340D01*
G01X34333Y7315D01*
G01X34361Y7287D01*
G01X34386Y7231D01*
G01X34386Y7122D01*
G01X34361Y7068D01*
G01X34333Y7040D01*
G01X34277Y7015D01*
G01X34223Y7015D01*
G01X34168Y7040D01*
G01X34086Y7096D01*
G01X33815Y7368D01*
G01X33815Y6987D01*
G01X4970Y2672D02*
G01X4917Y2776D01*
G01X4813Y2880D01*
G01X4711Y2931D01*
G01X4503Y2931D01*
G01X4399Y2880D01*
G01X4295Y2776D01*
G01X4241Y2672D01*
G01X4191Y2514D01*
G01X4191Y2255D01*
G01X4241Y2100D01*
G01X4295Y1996D01*
G01X4399Y1892D01*
G01X4503Y1841D01*
G01X4711Y1841D01*
G01X4813Y1892D01*
G01X4917Y1996D01*
G01X4970Y2100D01*
G01X5626Y2931D02*
G01X5521Y2880D01*
G01X5417Y2776D01*
G01X5364Y2672D01*
G01X5313Y2514D01*
G01X5313Y2255D01*
G01X5364Y2100D01*
G01X5417Y1996D01*
G01X5521Y1892D01*
G01X5626Y1841D01*
G01X5831Y1841D01*
G01X5935Y1892D01*
G01X6040Y1996D01*
G01X6093Y2100D01*
G01X6144Y2255D01*
G01X6144Y2514D01*
G01X6093Y2672D01*
G01X6040Y2776D01*
G01X5935Y2880D01*
G01X5831Y2931D01*
G01X5626Y2931D01*
G01X6487Y2931D02*
G01X6487Y1841D01*
G01X6487Y2931D02*
G01X7213Y1841D01*
G01X7213Y2931D02*
G01X7213Y1841D01*
G01X7556Y2722D02*
G01X7660Y2776D01*
G01X7818Y2931D01*
G01X7818Y1841D01*
G01X77487Y2799D02*
G01X77434Y2903D01*
G01X77330Y3007D01*
G01X77228Y3058D01*
G01X77020Y3058D01*
G01X76916Y3007D01*
G01X76812Y2903D01*
G01X76758Y2799D01*
G01X76708Y2641D01*
G01X76708Y2382D01*
G01X76758Y2227D01*
G01X76812Y2123D01*
G01X76916Y2019D01*
G01X77020Y1968D01*
G01X77228Y1968D01*
G01X77330Y2019D01*
G01X77434Y2123D01*
G01X77487Y2227D01*
G01X78143Y3058D02*
G01X78038Y3007D01*
G01X77934Y2903D01*
G01X77881Y2799D01*
G01X77830Y2641D01*
G01X77830Y2382D01*
G01X77881Y2227D01*
G01X77934Y2123D01*
G01X78038Y2019D01*
G01X78143Y1968D01*
G01X78348Y1968D01*
G01X78452Y2019D01*
G01X78557Y2123D01*
G01X78610Y2227D01*
G01X78661Y2382D01*
G01X78661Y2641D01*
G01X78610Y2799D01*
G01X78557Y2903D01*
G01X78452Y3007D01*
G01X78348Y3058D01*
G01X78143Y3058D01*
G01X79004Y3058D02*
G01X79004Y1968D01*
G01X79004Y3058D02*
G01X79730Y1968D01*
G01X79730Y3058D02*
G01X79730Y1968D01*
G01X80126Y2799D02*
G01X80126Y2849D01*
G01X80177Y2954D01*
G01X80230Y3007D01*
G01X80335Y3058D01*
G01X80543Y3058D01*
G01X80645Y3007D01*
G01X80698Y2954D01*
G01X80749Y2849D01*
G01X80749Y2745D01*
G01X80698Y2641D01*
G01X80594Y2486D01*
G01X80073Y1968D01*
G01X80802Y1968D01*
G01X22623Y26929D02*
G01X22570Y27033D01*
G01X22466Y27137D01*
G01X22364Y27188D01*
G01X22156Y27188D01*
G01X22052Y27137D01*
G01X21948Y27033D01*
G01X21894Y26929D01*
G01X21844Y26771D01*
G01X21844Y26512D01*
G01X21894Y26357D01*
G01X21948Y26253D01*
G01X22052Y26149D01*
G01X22156Y26098D01*
G01X22364Y26098D01*
G01X22466Y26149D01*
G01X22570Y26253D01*
G01X22623Y26357D01*
G01X22623Y26512D01*
G01X22364Y26512D02*
G01X22623Y26512D01*
G01X22966Y27188D02*
G01X22966Y26098D01*
G01X22966Y27188D02*
G01X23434Y27188D01*
G01X23588Y27137D01*
G01X23642Y27084D01*
G01X23693Y26979D01*
G01X23693Y26824D01*
G01X23642Y26720D01*
G01X23588Y26670D01*
G01X23434Y26616D01*
G01X22966Y26616D01*
G01X24036Y27188D02*
G01X24036Y26098D01*
G01X24691Y27188D02*
G01X24587Y27137D01*
G01X24483Y27033D01*
G01X24432Y26929D01*
G01X24378Y26771D01*
G01X24378Y26512D01*
G01X24432Y26357D01*
G01X24483Y26253D01*
G01X24587Y26149D01*
G01X24691Y26098D01*
G01X24899Y26098D01*
G01X25003Y26149D01*
G01X25107Y26253D01*
G01X25158Y26357D01*
G01X25209Y26512D01*
G01X25209Y26771D01*
G01X25158Y26929D01*
G01X25107Y27033D01*
G01X25003Y27137D01*
G01X24899Y27188D01*
G01X24691Y27188D01*
G01X27813Y28831D02*
G01X27813Y29309D01*
G01X27813Y28831D02*
G01X27607Y28831D01*
G01X27541Y28854D01*
G01X27518Y28877D01*
G01X27495Y28922D01*
G01X27495Y28968D01*
G01X27518Y29014D01*
G01X27541Y29037D01*
G01X27607Y29060D01*
G01X27813Y29060D01*
G01X27652Y29060D02*
G01X27495Y29309D01*
G01X27299Y28831D02*
G01X27048Y28831D01*
G01X27185Y29014D01*
G01X27117Y29014D01*
G01X27071Y29037D01*
G01X27048Y29060D01*
G01X27025Y29128D01*
G01X27025Y29174D01*
G01X27048Y29240D01*
G01X27094Y29286D01*
G01X27162Y29309D01*
G01X27231Y29309D01*
G01X27299Y29286D01*
G01X27322Y29263D01*
G01X27345Y29217D01*
G01X38217Y37424D02*
G01X38171Y37401D01*
G01X38126Y37355D01*
G01X38103Y37310D01*
G01X38103Y37221D01*
G01X38126Y37175D01*
G01X38171Y37129D01*
G01X38217Y37106D01*
G01X38286Y37084D01*
G01X38397Y37084D01*
G01X38466Y37106D01*
G01X38512Y37129D01*
G01X38557Y37175D01*
G01X38580Y37221D01*
G01X38580Y37310D01*
G01X38557Y37355D01*
G01X38512Y37401D01*
G01X38466Y37424D01*
G01X38103Y37848D02*
G01X38103Y37619D01*
G01X38309Y37597D01*
G01X38286Y37619D01*
G01X38263Y37688D01*
G01X38263Y37757D01*
G01X38286Y37825D01*
G01X38331Y37871D01*
G01X38397Y37894D01*
G01X38443Y37894D01*
G01X38512Y37871D01*
G01X38557Y37825D01*
G01X38580Y37757D01*
G01X38580Y37688D01*
G01X38557Y37619D01*
G01X38535Y37597D01*
G01X38489Y37574D01*
G01X31455Y35061D02*
G01X31432Y35107D01*
G01X31386Y35152D01*
G01X31341Y35175D01*
G01X31252Y35175D01*
G01X31206Y35152D01*
G01X31160Y35107D01*
G01X31137Y35061D01*
G01X31115Y34992D01*
G01X31115Y34881D01*
G01X31137Y34812D01*
G01X31160Y34766D01*
G01X31206Y34721D01*
G01X31252Y34698D01*
G01X31341Y34698D01*
G01X31386Y34721D01*
G01X31432Y34766D01*
G01X31455Y34812D01*
G01X31650Y35175D02*
G01X31902Y35175D01*
G01X31765Y34992D01*
G01X31833Y34992D01*
G01X31879Y34969D01*
G01X31902Y34947D01*
G01X31925Y34881D01*
G01X31925Y34835D01*
G01X31902Y34766D01*
G01X31856Y34721D01*
G01X31788Y34698D01*
G01X31719Y34698D01*
G01X31650Y34721D01*
G01X31628Y34743D01*
G01X31605Y34789D01*
G01X29718Y35684D02*
G01X29718Y35206D01*
G01X29718Y35206D02*
G01X29989Y35206D01*
G01X30139Y35593D02*
G01X30185Y35615D01*
G01X30253Y35684D01*
G01X30253Y35206D01*
G01X18785Y38186D02*
G01X18740Y38163D01*
G01X18694Y38117D01*
G01X18671Y38072D01*
G01X18671Y37983D01*
G01X18694Y37937D01*
G01X18740Y37891D01*
G01X18785Y37868D01*
G01X18854Y37846D01*
G01X18968Y37846D01*
G01X19037Y37868D01*
G01X19080Y37891D01*
G01X19126Y37937D01*
G01X19149Y37983D01*
G01X19149Y38072D01*
G01X19126Y38117D01*
G01X19080Y38163D01*
G01X19037Y38186D01*
G01X18671Y38656D02*
G01X19149Y38427D01*
G01X18671Y38336D02*
G01X18671Y38656D01*
G01X13718Y31242D02*
G01X14196Y31242D01*
G01X13718Y31242D02*
G01X13718Y31447D01*
G01X13741Y31513D01*
G01X13764Y31536D01*
G01X13809Y31559D01*
G01X13855Y31559D01*
G01X13901Y31536D01*
G01X13924Y31513D01*
G01X13947Y31447D01*
G01X13947Y31242D01*
G01X13947Y31402D02*
G01X14196Y31559D01*
G01X13809Y31709D02*
G01X13787Y31755D01*
G01X13718Y31823D01*
G01X14196Y31823D01*
G01X13832Y31996D02*
G01X13809Y31996D01*
G01X13764Y32019D01*
G01X13741Y32042D01*
G01X13718Y32087D01*
G01X13718Y32179D01*
G01X13741Y32224D01*
G01X13764Y32245D01*
G01X13809Y32268D01*
G01X13855Y32268D01*
G01X13901Y32245D01*
G01X13970Y32202D01*
G01X14196Y31973D01*
G01X14196Y32291D01*
G01X18923Y32255D02*
G01X18923Y31777D01*
G01X18923Y32255D02*
G01X19128Y32255D01*
G01X19194Y32232D01*
G01X19217Y32209D01*
G01X19240Y32164D01*
G01X19240Y32118D01*
G01X19217Y32072D01*
G01X19194Y32049D01*
G01X19128Y32026D01*
G01X18923Y32026D01*
G01X19083Y32026D02*
G01X19240Y31777D01*
G01X19390Y32164D02*
G01X19436Y32186D01*
G01X19504Y32255D01*
G01X19504Y31777D01*
G01X19700Y32255D02*
G01X19949Y32255D01*
G01X19814Y32072D01*
G01X19883Y32072D01*
G01X19926Y32049D01*
G01X19949Y32026D01*
G01X19972Y31958D01*
G01X19972Y31912D01*
G01X19949Y31846D01*
G01X19905Y31800D01*
G01X19837Y31777D01*
G01X19768Y31777D01*
G01X19700Y31800D01*
G01X19677Y31823D01*
G01X19654Y31869D01*
G01X11800Y38186D02*
G01X11755Y38163D01*
G01X11709Y38117D01*
G01X11686Y38072D01*
G01X11686Y37983D01*
G01X11709Y37937D01*
G01X11755Y37891D01*
G01X11800Y37868D01*
G01X11869Y37846D01*
G01X11983Y37846D01*
G01X12052Y37868D01*
G01X12095Y37891D01*
G01X12141Y37937D01*
G01X12164Y37983D01*
G01X12164Y38072D01*
G01X12141Y38117D01*
G01X12095Y38163D01*
G01X12052Y38186D01*
G01X11755Y38610D02*
G01X11709Y38587D01*
G01X11686Y38519D01*
G01X11686Y38473D01*
G01X11709Y38404D01*
G01X11777Y38359D01*
G01X11892Y38336D01*
G01X12006Y38336D01*
G01X12095Y38359D01*
G01X12141Y38404D01*
G01X12164Y38473D01*
G01X12164Y38496D01*
G01X12141Y38564D01*
G01X12095Y38610D01*
G01X12029Y38633D01*
G01X12006Y38633D01*
G01X11938Y38610D01*
G01X11892Y38564D01*
G01X11869Y38496D01*
G01X11869Y38473D01*
G01X11892Y38404D01*
G01X11938Y38359D01*
G01X12006Y38336D01*
G01X18923Y31493D02*
G01X18923Y31015D01*
G01X18923Y31493D02*
G01X19126Y31493D01*
G01X19195Y31470D01*
G01X19218Y31447D01*
G01X19241Y31402D01*
G01X19241Y31356D01*
G01X19218Y31310D01*
G01X19195Y31287D01*
G01X19126Y31264D01*
G01X18923Y31264D01*
G01X19081Y31264D02*
G01X19241Y31015D01*
G01X19391Y31402D02*
G01X19436Y31424D01*
G01X19505Y31493D01*
G01X19505Y31015D01*
G01X19881Y31493D02*
G01X19655Y31173D01*
G01X19995Y31173D01*
G01X19881Y31493D02*
G01X19881Y31015D01*
G01X25654Y28958D02*
G01X25654Y29436D01*
G01X25654Y28958D02*
G01X25448Y28958D01*
G01X25382Y28981D01*
G01X25359Y29004D01*
G01X25336Y29049D01*
G01X25336Y29095D01*
G01X25359Y29141D01*
G01X25382Y29164D01*
G01X25448Y29187D01*
G01X25654Y29187D01*
G01X25493Y29187D02*
G01X25336Y29436D01*
G01X25163Y29072D02*
G01X25163Y29049D01*
G01X25140Y29004D01*
G01X25118Y28981D01*
G01X25072Y28958D01*
G01X24980Y28958D01*
G01X24935Y28981D01*
G01X24912Y29004D01*
G01X24889Y29049D01*
G01X24889Y29095D01*
G01X24912Y29141D01*
G01X24958Y29210D01*
G01X25186Y29436D01*
G01X24866Y29436D01*
G01X29250Y29072D02*
G01X29273Y29027D01*
G01X29319Y28981D01*
G01X29364Y28958D01*
G01X29453Y28958D01*
G01X29499Y28981D01*
G01X29545Y29027D01*
G01X29568Y29072D01*
G01X29591Y29141D01*
G01X29591Y29255D01*
G01X29568Y29324D01*
G01X29545Y29367D01*
G01X29499Y29413D01*
G01X29453Y29436D01*
G01X29364Y29436D01*
G01X29319Y29413D01*
G01X29273Y29367D01*
G01X29250Y29324D01*
G01X28803Y29118D02*
G01X28826Y29187D01*
G01X28872Y29232D01*
G01X28940Y29255D01*
G01X28963Y29255D01*
G01X29032Y29232D01*
G01X29077Y29187D01*
G01X29100Y29118D01*
G01X29100Y29095D01*
G01X29077Y29027D01*
G01X29032Y28981D01*
G01X28963Y28958D01*
G01X28940Y28958D01*
G01X28872Y28981D01*
G01X28826Y29027D01*
G01X28803Y29118D01*
G01X28803Y29232D01*
G01X28826Y29344D01*
G01X28872Y29413D01*
G01X28940Y29436D01*
G01X28986Y29436D01*
G01X29055Y29413D01*
G01X29077Y29367D01*
G01X24508Y35052D02*
G01X24165Y35052D01*
G01X24099Y35029D01*
G01X24053Y34983D01*
G01X24030Y34914D01*
G01X24030Y34869D01*
G01X24053Y34803D01*
G01X24099Y34757D01*
G01X24165Y34734D01*
G01X24508Y34734D01*
G01X24417Y34584D02*
G01X24439Y34538D01*
G01X24508Y34470D01*
G01X24030Y34470D01*
G01X24508Y34183D02*
G01X24485Y34251D01*
G01X24417Y34297D01*
G01X24302Y34320D01*
G01X24234Y34320D01*
G01X24122Y34297D01*
G01X24053Y34251D01*
G01X24030Y34183D01*
G01X24030Y34137D01*
G01X24053Y34069D01*
G01X24122Y34025D01*
G01X24234Y34002D01*
G01X24302Y34002D01*
G01X24417Y34025D01*
G01X24485Y34069D01*
G01X24508Y34137D01*
G01X24508Y34183D01*
G01X28712Y34076D02*
G01X28757Y34099D01*
G01X28803Y34145D01*
G01X28826Y34190D01*
G01X28826Y34279D01*
G01X28803Y34325D01*
G01X28757Y34371D01*
G01X28712Y34394D01*
G01X28643Y34417D01*
G01X28529Y34417D01*
G01X28460Y34394D01*
G01X28417Y34371D01*
G01X28371Y34325D01*
G01X28348Y34279D01*
G01X28348Y34190D01*
G01X28371Y34145D01*
G01X28417Y34099D01*
G01X28460Y34076D01*
G01X28826Y33812D02*
G01X28803Y33881D01*
G01X28757Y33903D01*
G01X28712Y33903D01*
G01X28666Y33881D01*
G01X28643Y33835D01*
G01X28620Y33743D01*
G01X28597Y33675D01*
G01X28552Y33629D01*
G01X28506Y33606D01*
G01X28440Y33606D01*
G01X28394Y33629D01*
G01X28371Y33652D01*
G01X28348Y33721D01*
G01X28348Y33812D01*
G01X28371Y33881D01*
G01X28394Y33903D01*
G01X28440Y33926D01*
G01X28506Y33926D01*
G01X28552Y33903D01*
G01X28597Y33858D01*
G01X28620Y33789D01*
G01X28643Y33698D01*
G01X28666Y33652D01*
G01X28712Y33629D01*
G01X28757Y33629D01*
G01X28803Y33652D01*
G01X28826Y33721D01*
G01X28826Y33812D01*
G01X21295Y33538D02*
G01X21272Y33583D01*
G01X21226Y33629D01*
G01X21181Y33652D01*
G01X21092Y33652D01*
G01X21046Y33629D01*
G01X21000Y33583D01*
G01X20977Y33538D01*
G01X20955Y33469D01*
G01X20955Y33355D01*
G01X20977Y33286D01*
G01X21000Y33243D01*
G01X21046Y33197D01*
G01X21092Y33174D01*
G01X21181Y33174D01*
G01X21226Y33197D01*
G01X21272Y33243D01*
G01X21295Y33286D01*
G01X21445Y33561D02*
G01X21490Y33583D01*
G01X21559Y33652D01*
G01X21559Y33174D01*
G01X21846Y33652D02*
G01X21777Y33629D01*
G01X21732Y33561D01*
G01X21709Y33446D01*
G01X21709Y33378D01*
G01X21732Y33266D01*
G01X21777Y33197D01*
G01X21846Y33174D01*
G01X21892Y33174D01*
G01X21958Y33197D01*
G01X22004Y33266D01*
G01X22026Y33378D01*
G01X22026Y33446D01*
G01X22004Y33561D01*
G01X21958Y33629D01*
G01X21892Y33652D01*
G01X21846Y33652D01*
G01X33657Y27178D02*
G01X34135Y27178D01*
G01X33657Y27178D02*
G01X33657Y27338D01*
G01X33680Y27404D01*
G01X33726Y27449D01*
G01X33771Y27472D01*
G01X33840Y27495D01*
G01X33954Y27495D01*
G01X34023Y27472D01*
G01X34066Y27449D01*
G01X34112Y27404D01*
G01X34135Y27338D01*
G01X34135Y27178D01*
G01X33657Y27645D02*
G01X34135Y27645D01*
G01X33657Y27795D02*
G01X34135Y27795D01*
G01X33657Y27795D02*
G01X33657Y28000D01*
G01X33680Y28069D01*
G01X33703Y28092D01*
G01X33748Y28115D01*
G01X33817Y28115D01*
G01X33863Y28092D01*
G01X33886Y28069D01*
G01X33909Y28000D01*
G01X33909Y27795D01*
G01X33748Y28265D02*
G01X33726Y28310D01*
G01X33657Y28376D01*
G01X34135Y28376D01*
G54D47*
G01X33667Y33931D02*
G01X33619Y33909D01*
G01X33573Y33863D01*
G01X33550Y33817D01*
G01X33528Y33746D01*
G01X33528Y33632D01*
G01X33550Y33563D01*
G01X33573Y33515D01*
G01X33619Y33469D01*
G01X33667Y33446D01*
G01X33759Y33446D01*
G01X33804Y33469D01*
G01X33850Y33515D01*
G01X33873Y33563D01*
G01X33896Y33632D01*
G01X33896Y33746D01*
G01X33873Y33817D01*
G01X33850Y33863D01*
G01X33804Y33909D01*
G01X33759Y33931D01*
G01X33667Y33931D01*
G01X34048Y33931D02*
G01X34048Y33446D01*
G01X34048Y33931D02*
G01X34373Y33446D01*
G01X34373Y33931D02*
G01X34373Y33446D01*
G01X34671Y29756D02*
G01X34716Y29781D01*
G01X34785Y29850D01*
G01X34785Y29364D01*
G01X35963Y29733D02*
G01X35963Y29756D01*
G01X35986Y29804D01*
G01X36009Y29827D01*
G01X36055Y29850D01*
G01X36149Y29850D01*
G01X36195Y29827D01*
G01X36217Y29804D01*
G01X36240Y29756D01*
G01X36240Y29710D01*
G01X36217Y29664D01*
G01X36172Y29596D01*
G01X35941Y29364D01*
G01X36263Y29364D01*
G01X37256Y29850D02*
G01X37510Y29850D01*
G01X37373Y29664D01*
G01X37442Y29664D01*
G01X37487Y29641D01*
G01X37510Y29618D01*
G01X37533Y29550D01*
G01X37533Y29502D01*
G01X37510Y29433D01*
G01X37465Y29387D01*
G01X37396Y29364D01*
G01X37325Y29364D01*
G01X37256Y29387D01*
G01X37233Y29410D01*
G01X37211Y29456D01*
G01X38585Y29850D02*
G01X38354Y29527D01*
G01X38699Y29527D01*
G01X38585Y29850D02*
G01X38585Y29364D01*
G01X40027Y29850D02*
G01X39796Y29850D01*
G01X39773Y29641D01*
G01X39796Y29664D01*
G01X39865Y29687D01*
G01X39936Y29687D01*
G01X40005Y29664D01*
G01X40050Y29618D01*
G01X40073Y29550D01*
G01X40073Y29502D01*
G01X40050Y29433D01*
G01X40005Y29387D01*
G01X39936Y29364D01*
G01X39865Y29364D01*
G01X39796Y29387D01*
G01X39773Y29410D01*
G01X39751Y29456D01*
G01X41297Y29781D02*
G01X41275Y29827D01*
G01X41206Y29850D01*
G01X41160Y29850D01*
G01X41089Y29827D01*
G01X41043Y29756D01*
G01X41021Y29641D01*
G01X41021Y29527D01*
G01X41043Y29433D01*
G01X41089Y29387D01*
G01X41160Y29364D01*
G01X41183Y29364D01*
G01X41252Y29387D01*
G01X41297Y29433D01*
G01X41320Y29502D01*
G01X41320Y29527D01*
G01X41297Y29596D01*
G01X41252Y29641D01*
G01X41183Y29664D01*
G01X41160Y29664D01*
G01X41089Y29641D01*
G01X41043Y29596D01*
G01X41021Y29527D01*
G54D46*
G01X72476Y24139D02*
G01X72453Y24185D01*
G01X72407Y24230D01*
G01X72362Y24253D01*
G01X72273Y24253D01*
G01X72227Y24230D01*
G01X72181Y24185D01*
G01X72158Y24139D01*
G01X72136Y24070D01*
G01X72136Y23959D01*
G01X72158Y23890D01*
G01X72181Y23844D01*
G01X72227Y23799D01*
G01X72273Y23776D01*
G01X72362Y23776D01*
G01X72407Y23799D01*
G01X72453Y23844D01*
G01X72476Y23890D01*
G01X72626Y24162D02*
G01X72671Y24185D01*
G01X72740Y24253D01*
G01X72740Y23776D01*
G01X72351Y11694D02*
G01X72328Y11739D01*
G01X72282Y11785D01*
G01X72236Y11808D01*
G01X72145Y11808D01*
G01X72099Y11785D01*
G01X72053Y11739D01*
G01X72031Y11694D01*
G01X72008Y11625D01*
G01X72008Y11511D01*
G01X72031Y11442D01*
G01X72053Y11399D01*
G01X72099Y11353D01*
G01X72145Y11330D01*
G01X72236Y11330D01*
G01X72282Y11353D01*
G01X72328Y11399D01*
G01X72351Y11442D01*
G01X72523Y11694D02*
G01X72523Y11717D01*
G01X72544Y11762D01*
G01X72567Y11785D01*
G01X72612Y11808D01*
G01X72704Y11808D01*
G01X72749Y11785D01*
G01X72772Y11762D01*
G01X72795Y11717D01*
G01X72795Y11671D01*
G01X72772Y11625D01*
G01X72727Y11557D01*
G01X72500Y11330D01*
G01X72818Y11330D01*
G01X50034Y10970D02*
G01X49557Y10970D01*
G01X50034Y10970D02*
G01X50034Y10765D01*
G01X50011Y10699D01*
G01X49989Y10676D01*
G01X49943Y10653D01*
G01X49897Y10653D01*
G01X49851Y10676D01*
G01X49829Y10699D01*
G01X49806Y10765D01*
G01X49806Y10970D01*
G01X49806Y10810D02*
G01X49557Y10653D01*
G01X49943Y10503D02*
G01X49966Y10457D01*
G01X50034Y10389D01*
G01X49557Y10389D01*
G01X50034Y10102D02*
G01X50011Y10170D01*
G01X49943Y10216D01*
G01X49829Y10239D01*
G01X49763Y10239D01*
G01X49648Y10216D01*
G01X49580Y10170D01*
G01X49557Y10102D01*
G01X49557Y10056D01*
G01X49580Y9987D01*
G01X49648Y9944D01*
G01X49763Y9921D01*
G01X49829Y9921D01*
G01X49943Y9944D01*
G01X50011Y9987D01*
G01X50034Y10056D01*
G01X50034Y10102D01*
G01X49908Y5334D02*
G01X49430Y5334D01*
G01X49908Y5334D02*
G01X49908Y5128D01*
G01X49885Y5062D01*
G01X49862Y5039D01*
G01X49817Y5016D01*
G01X49771Y5016D01*
G01X49725Y5039D01*
G01X49702Y5062D01*
G01X49679Y5128D01*
G01X49679Y5334D01*
G01X49679Y5173D02*
G01X49430Y5016D01*
G01X49817Y4866D02*
G01X49839Y4820D01*
G01X49908Y4752D01*
G01X49430Y4752D01*
G01X49817Y4602D02*
G01X49839Y4556D01*
G01X49908Y4488D01*
G01X49430Y4488D01*
G01X47879Y39113D02*
G01X47879Y38770D01*
G01X47901Y38704D01*
G01X47947Y38658D01*
G01X48016Y38635D01*
G01X48061Y38635D01*
G01X48127Y38658D01*
G01X48173Y38704D01*
G01X48196Y38770D01*
G01X48196Y39113D01*
G01X48574Y39113D02*
G01X48346Y38793D01*
G01X48689Y38793D01*
G01X48574Y39113D02*
G01X48574Y38635D01*
G01X73522Y1229D02*
G01X73477Y1206D01*
G01X73431Y1160D01*
G01X73408Y1115D01*
G01X73408Y1026D01*
G01X73431Y980D01*
G01X73477Y934D01*
G01X73522Y911D01*
G01X73591Y889D01*
G01X73705Y889D01*
G01X73774Y911D01*
G01X73817Y934D01*
G01X73863Y980D01*
G01X73886Y1026D01*
G01X73886Y1115D01*
G01X73863Y1160D01*
G01X73817Y1206D01*
G01X73774Y1229D01*
G01X73408Y1607D02*
G01X73728Y1379D01*
G01X73728Y1719D01*
G01X73408Y1607D02*
G01X73886Y1607D01*
G01X60198Y10156D02*
G01X60198Y9815D01*
G01X60220Y9747D01*
G01X60266Y9701D01*
G01X60335Y9678D01*
G01X60380Y9678D01*
G01X60446Y9701D01*
G01X60492Y9747D01*
G01X60515Y9815D01*
G01X60515Y10156D01*
G01X60779Y10156D02*
G01X60711Y10133D01*
G01X60688Y10087D01*
G01X60688Y10041D01*
G01X60711Y9998D01*
G01X60756Y9975D01*
G01X60848Y9952D01*
G01X60916Y9930D01*
G01X60962Y9884D01*
G01X60985Y9838D01*
G01X60985Y9770D01*
G01X60962Y9724D01*
G01X60939Y9701D01*
G01X60871Y9678D01*
G01X60779Y9678D01*
G01X60711Y9701D01*
G01X60688Y9724D01*
G01X60665Y9770D01*
G01X60665Y9838D01*
G01X60688Y9884D01*
G01X60733Y9930D01*
G01X60802Y9952D01*
G01X60893Y9975D01*
G01X60939Y9998D01*
G01X60962Y10041D01*
G01X60962Y10087D01*
G01X60939Y10133D01*
G01X60871Y10156D01*
G01X60779Y10156D01*
G01X64137Y37211D02*
G01X64615Y37211D01*
G01X64615Y37211D02*
G01X64615Y37482D01*
G01X64137Y37632D02*
G01X64615Y37632D01*
G01X64137Y37632D02*
G01X64137Y37929D01*
G01X64366Y37632D02*
G01X64366Y37815D01*
G01X64615Y37632D02*
G01X64615Y37929D01*
G01X64137Y38079D02*
G01X64615Y38079D01*
G01X64137Y38079D02*
G01X64137Y38237D01*
G01X64160Y38305D01*
G01X64206Y38351D01*
G01X64251Y38374D01*
G01X64320Y38397D01*
G01X64434Y38397D01*
G01X64503Y38374D01*
G01X64546Y38351D01*
G01X64592Y38305D01*
G01X64615Y38237D01*
G01X64615Y38079D01*
G01X64251Y38569D02*
G01X64228Y38569D01*
G01X64183Y38592D01*
G01X64160Y38615D01*
G01X64137Y38661D01*
G01X64137Y38752D01*
G01X64160Y38798D01*
G01X64183Y38821D01*
G01X64228Y38841D01*
G01X64274Y38841D01*
G01X64320Y38821D01*
G01X64389Y38775D01*
G01X64615Y38547D01*
G01X64615Y38864D01*
G01X57407Y37339D02*
G01X57885Y37339D01*
G01X57885Y37339D02*
G01X57885Y37611D01*
G01X57407Y37760D02*
G01X57885Y37760D01*
G01X57407Y37760D02*
G01X57407Y38055D01*
G01X57633Y37760D02*
G01X57633Y37943D01*
G01X57885Y37760D02*
G01X57885Y38055D01*
G01X57407Y38205D02*
G01X57885Y38205D01*
G01X57407Y38205D02*
G01X57407Y38365D01*
G01X57430Y38434D01*
G01X57476Y38479D01*
G01X57522Y38502D01*
G01X57588Y38525D01*
G01X57702Y38525D01*
G01X57771Y38502D01*
G01X57816Y38479D01*
G01X57862Y38434D01*
G01X57885Y38365D01*
G01X57885Y38205D01*
G01X57499Y38675D02*
G01X57476Y38721D01*
G01X57407Y38787D01*
G01X57885Y38787D01*
G01X70739Y21079D02*
G01X71056Y20601D01*
G01X71056Y21079D02*
G01X70739Y20601D01*
G01X71206Y20988D02*
G01X71252Y21010D01*
G01X71320Y21079D01*
G01X71320Y20601D01*
G01X62738Y35811D02*
G01X62738Y35333D01*
G01X62738Y35811D02*
G01X62943Y35811D01*
G01X63009Y35788D01*
G01X63032Y35765D01*
G01X63055Y35720D01*
G01X63055Y35674D01*
G01X63032Y35628D01*
G01X63009Y35605D01*
G01X62943Y35582D01*
G01X62738Y35582D01*
G01X62898Y35582D02*
G01X63055Y35333D01*
G01X63433Y35811D02*
G01X63205Y35491D01*
G01X63548Y35491D01*
G01X63433Y35811D02*
G01X63433Y35333D01*
G01X60833Y35811D02*
G01X60833Y35333D01*
G01X60833Y35811D02*
G01X61038Y35811D01*
G01X61104Y35788D01*
G01X61127Y35765D01*
G01X61150Y35720D01*
G01X61150Y35674D01*
G01X61127Y35628D01*
G01X61104Y35605D01*
G01X61038Y35582D01*
G01X60833Y35582D01*
G01X60993Y35582D02*
G01X61150Y35333D01*
G01X61597Y35651D02*
G01X61574Y35582D01*
G01X61528Y35537D01*
G01X61460Y35514D01*
G01X61437Y35514D01*
G01X61368Y35537D01*
G01X61323Y35582D01*
G01X61300Y35651D01*
G01X61300Y35674D01*
G01X61323Y35742D01*
G01X61368Y35788D01*
G01X61437Y35811D01*
G01X61460Y35811D01*
G01X61528Y35788D01*
G01X61574Y35742D01*
G01X61597Y35651D01*
G01X61597Y35537D01*
G01X61574Y35425D01*
G01X61528Y35356D01*
G01X61460Y35333D01*
G01X61414Y35333D01*
G01X61346Y35356D01*
G01X61323Y35402D01*
G01X36576Y25410D02*
G01X36576Y25067D01*
G01X36598Y25001D01*
G01X36644Y24955D01*
G01X36713Y24932D01*
G01X36758Y24932D01*
G01X36824Y24955D01*
G01X36870Y25001D01*
G01X36893Y25067D01*
G01X36893Y25410D01*
G01X37317Y25341D02*
G01X37294Y25387D01*
G01X37226Y25410D01*
G01X37180Y25410D01*
G01X37111Y25387D01*
G01X37066Y25318D01*
G01X37043Y25204D01*
G01X37043Y25090D01*
G01X37066Y25001D01*
G01X37111Y24955D01*
G01X37180Y24932D01*
G01X37203Y24932D01*
G01X37271Y24955D01*
G01X37317Y25001D01*
G01X37340Y25067D01*
G01X37340Y25090D01*
G01X37317Y25158D01*
G01X37271Y25204D01*
G01X37203Y25227D01*
G01X37180Y25227D01*
G01X37111Y25204D01*
G01X37066Y25158D01*
G01X37043Y25090D01*
G01X27048Y3810D02*
G01X26705Y3810D01*
G01X26639Y3787D01*
G01X26593Y3741D01*
G01X26570Y3672D01*
G01X26570Y3627D01*
G01X26593Y3561D01*
G01X26639Y3515D01*
G01X26705Y3492D01*
G01X27048Y3492D01*
G01X27048Y3296D02*
G01X27048Y3045D01*
G01X26865Y3182D01*
G01X26865Y3114D01*
G01X26842Y3068D01*
G01X26819Y3045D01*
G01X26751Y3022D01*
G01X26705Y3022D01*
G01X26639Y3045D01*
G01X26593Y3091D01*
G01X26570Y3159D01*
G01X26570Y3228D01*
G01X26593Y3296D01*
G01X26616Y3319D01*
G01X26662Y3342D01*
G01X68961Y34287D02*
G01X68961Y33809D01*
G01X69278Y34287D02*
G01X69278Y33809D01*
G01X68961Y34058D02*
G01X69278Y34058D01*
G01X69656Y34287D02*
G01X69428Y33967D01*
G01X69771Y33967D01*
G01X69656Y34287D02*
G01X69656Y33809D01*
G01X18785Y21211D02*
G01X18831Y21234D01*
G01X18877Y21280D01*
G01X18900Y21325D01*
G01X18923Y21394D01*
G01X18923Y21508D01*
G01X18900Y21577D01*
G01X18877Y21620D01*
G01X18831Y21666D01*
G01X18785Y21689D01*
G01X18696Y21689D01*
G01X18651Y21666D01*
G01X18605Y21620D01*
G01X18582Y21577D01*
G01X18559Y21508D01*
G01X18559Y21394D01*
G01X18582Y21325D01*
G01X18605Y21280D01*
G01X18651Y21234D01*
G01X18696Y21211D01*
G01X18785Y21211D01*
G01X18717Y21597D02*
G01X18582Y21734D01*
G01X18181Y21211D02*
G01X18409Y21531D01*
G01X18069Y21531D01*
G01X18181Y21211D02*
G01X18181Y21689D01*
G01X18171Y17523D02*
G01X18125Y17500D01*
G01X18079Y17454D01*
G01X18056Y17409D01*
G01X18034Y17340D01*
G01X18034Y17226D01*
G01X18056Y17157D01*
G01X18079Y17114D01*
G01X18125Y17068D01*
G01X18171Y17045D01*
G01X18260Y17045D01*
G01X18305Y17068D01*
G01X18351Y17114D01*
G01X18374Y17157D01*
G01X18397Y17226D01*
G01X18397Y17340D01*
G01X18374Y17409D01*
G01X18351Y17454D01*
G01X18305Y17500D01*
G01X18260Y17523D01*
G01X18171Y17523D01*
G01X18239Y17137D02*
G01X18374Y17000D01*
G01X18592Y17523D02*
G01X18844Y17523D01*
G01X18707Y17340D01*
G01X18775Y17340D01*
G01X18821Y17317D01*
G01X18844Y17294D01*
G01X18864Y17226D01*
G01X18864Y17180D01*
G01X18844Y17114D01*
G01X18798Y17068D01*
G01X18729Y17045D01*
G01X18661Y17045D01*
G01X18592Y17068D01*
G01X18569Y17091D01*
G01X18547Y17137D01*
G01X61722Y32763D02*
G01X61722Y32420D01*
G01X61744Y32354D01*
G01X61790Y32308D01*
G01X61859Y32285D01*
G01X61904Y32285D01*
G01X61970Y32308D01*
G01X62016Y32354D01*
G01X62039Y32420D01*
G01X62039Y32763D01*
G01X62463Y32763D02*
G01X62235Y32763D01*
G01X62212Y32557D01*
G01X62235Y32580D01*
G01X62303Y32603D01*
G01X62372Y32603D01*
G01X62440Y32580D01*
G01X62486Y32534D01*
G01X62509Y32466D01*
G01X62509Y32420D01*
G01X62486Y32354D01*
G01X62440Y32308D01*
G01X62372Y32285D01*
G01X62303Y32285D01*
G01X62235Y32308D01*
G01X62212Y32331D01*
G01X62189Y32377D01*
G01X72390Y33911D02*
G01X72390Y34254D01*
G01X72367Y34320D01*
G01X72321Y34366D01*
G01X72252Y34389D01*
G01X72207Y34389D01*
G01X72141Y34366D01*
G01X72095Y34320D01*
G01X72072Y34254D01*
G01X72072Y33911D01*
G01X71899Y34025D02*
G01X71899Y34002D01*
G01X71876Y33957D01*
G01X71854Y33934D01*
G01X71808Y33911D01*
G01X71716Y33911D01*
G01X71671Y33934D01*
G01X71648Y33957D01*
G01X71625Y34002D01*
G01X71625Y34048D01*
G01X71648Y34094D01*
G01X71694Y34163D01*
G01X71922Y34389D01*
G01X71602Y34389D01*
G01X9908Y37973D02*
G01X10386Y37973D01*
G01X9908Y38290D02*
G01X10386Y38290D01*
G01X10137Y37973D02*
G01X10137Y38290D01*
G01X9908Y38486D02*
G01X9908Y38737D01*
G01X10091Y38600D01*
G01X10091Y38668D01*
G01X10114Y38714D01*
G01X10137Y38737D01*
G01X10205Y38760D01*
G01X10251Y38760D01*
G01X10317Y38737D01*
G01X10363Y38691D01*
G01X10386Y38623D01*
G01X10386Y38554D01*
G01X10363Y38486D01*
G01X10340Y38463D01*
G01X10294Y38440D01*
G01X51946Y25016D02*
G01X51946Y24538D01*
G01X51946Y25016D02*
G01X52151Y25016D01*
G01X52217Y24993D01*
G01X52240Y24970D01*
G01X52263Y24925D01*
G01X52263Y24879D01*
G01X52240Y24833D01*
G01X52217Y24810D01*
G01X52151Y24787D01*
G01X51946Y24787D01*
G01X52106Y24787D02*
G01X52263Y24538D01*
G01X52413Y24925D02*
G01X52459Y24947D01*
G01X52527Y25016D01*
G01X52527Y24538D01*
G54D10*
G75*
G01X59741Y5944D02*
G02X58369Y5944I-686J0D01*
G01*
G75*
G01X37491Y37060D02*
G03X37691Y37260I0J200D01*
G01*
G75*
G01X37491Y39140D02*
G02X37691Y38940I0J-200D01*
G01*
G75*
G01X34391Y37060D02*
G02X34191Y37260I0J200D01*
G01*
G75*
G01X34391Y39140D02*
G03X34191Y38940I0J-200D01*
G01*
G75*
G01X30583Y35661D02*
G03X30783Y35461I200J0D01*
G01*
G75*
G01X32663Y35661D02*
G02X32463Y35461I-200J0D01*
G01*
G75*
G01X30583Y38761D02*
G02X30783Y38961I200J0D01*
G01*
G75*
G01X32663Y38761D02*
G03X32463Y38961I-200J0D01*
G01*
G75*
G01X18114Y38695D02*
G02X18364Y38445I0J-250D01*
G01*
G75*
G01X15414Y38695D02*
G03X15164Y38445I0J-250D01*
G01*
G75*
G01X18114Y33695D02*
G03X18364Y33945I0J250D01*
G01*
G75*
G01X15414Y33695D02*
G02X15164Y33945I0J250D01*
G01*
G75*
G01X14589Y38695D02*
G02X14789Y38495I0J-200D01*
G01*
G75*
G01X12589Y38695D02*
G03X12389Y38495I0J-200D01*
G01*
G75*
G01X14589Y33695D02*
G03X14789Y33895I0J200D01*
G01*
G75*
G01X12589Y33695D02*
G02X12389Y33895I0J200D01*
G01*
G75*
G01X28805Y29946D02*
G03X29005Y29746I200J0D01*
G01*
G75*
G01X30885Y29946D02*
G02X30685Y29746I-200J0D01*
G01*
G75*
G01X28805Y33046D02*
G02X29005Y33246I200J0D01*
G01*
G75*
G01X30885Y33046D02*
G03X30685Y33246I-200J0D01*
G01*
G75*
G01X27797Y38695D02*
G02X27997Y38495I0J-200D01*
G01*
G75*
G01X25797Y38695D02*
G03X25597Y38495I0J-200D01*
G01*
G75*
G01X27797Y33695D02*
G03X27997Y33895I0J200D01*
G01*
G75*
G01X25797Y33695D02*
G02X25597Y33895I0J200D01*
G01*
G75*
G01X20971Y27853D02*
G02X20771Y28053I0J200D01*
G01*
G75*
G01X22971Y27853D02*
G03X23171Y28053I0J200D01*
G01*
G75*
G01X20971Y32853D02*
G03X20771Y32653I0J-200D01*
G01*
G75*
G01X22971Y32853D02*
G02X23171Y32653I0J-200D01*
G01*
G75*
G01X69443Y23519D02*
G03X69243Y23319I0J-200D01*
G01*
G75*
G01X69443Y21439D02*
G02X69243Y21639I0J200D01*
G01*
G75*
G01X72543Y23519D02*
G02X72743Y23319I0J-200D01*
G01*
G75*
G01X72543Y21439D02*
G03X72743Y21639I0J200D01*
G01*
G75*
G01X69443Y14248D02*
G03X69243Y14048I0J-200D01*
G01*
G75*
G01X69443Y12168D02*
G02X69243Y12368I0J200D01*
G01*
G75*
G01X72543Y14248D02*
G02X72743Y14048I0J-200D01*
G01*
G75*
G01X72543Y12168D02*
G03X72743Y12368I0J200D01*
G01*
G54D13*
G75*
G01X53277Y29058D02*
G03X53277Y29063I299J2D01*
G01*
G54D10*
G75*
G01X50165Y28174D02*
G02X51435Y28174I635J0D01*
G01*
G75*
G01X70628Y802D02*
G02X70428Y1002I0J200D01*
G01*
G75*
G01X72628Y802D02*
G03X72828Y1002I0J200D01*
G01*
G75*
G01X70628Y5802D02*
G03X70428Y5602I0J-200D01*
G01*
G75*
G01X72628Y5802D02*
G02X72828Y5602I0J-200D01*
G01*
G54D44*
G75*
G01X65427Y10483D02*
G03X65427Y10485I150J1D01*
G01*
G54D10*
G75*
G01X59729Y10582D02*
G02X61430Y10583I850J-4D01*
G01*
G54D44*
G75*
G01X68961Y19812D02*
G03X68961Y19809I-150J-1D01*
G01*
G54D13*
G75*
G01X32741Y15685D02*
G03X32746Y15685I2J-300D01*
G01*
G54D10*
G75*
G01X31857Y18796D02*
G02X31857Y17526I0J-635D01*
G01*
G75*
G01X16221Y26620D02*
G02X15041Y26620I-590J-45D01*
G01*
G75*
G01X16221Y17222D02*
G02X15041Y17222I-590J-45D01*
G01*
G75*
G01X62830Y32208D02*
G02X61650Y32208I-590J-45D01*
G01*
G54D45*
G75*
G01X73177Y34366D02*
G03X73180Y34366I2J-200D01*
G01*
G54D10*
G75*
G01X56309Y6179D02*
G03X56309Y6179I-254J0D01*
G01*
G75*
G01X21209Y34925D02*
G03X21209Y34925I-127J0D01*
G01*
G75*
G01X56175Y27994D02*
G03X56175Y27994I-215J0D01*
G01*
G75*
G01X31892Y13001D02*
G03X31892Y13001I-215J0D01*
G01*
G54D44*
G75*
G01X25738Y5075D02*
G03X25738Y5075I-100J0D01*
G01*
G54D10*
G75*
G01X13145Y26797D02*
G03X13145Y26797I-190J0D01*
G01*
G75*
G01X13145Y17399D02*
G03X13145Y17399I-190J0D01*
G01*
M00*
M02*
