;Layer: Drill PTH
;EasyEDA v6.4.7, 2020-12-07T12:31:00+11:00
;abd5dd9122e84a36b54d064553817704,febe97c2bcdd4f57a3b586bf34626918,10
;Gerber Generator version 0.2
M48
METRIC,LZ,000.000
;Holesize 1 = 0.310 METRIC
T01C0.310
;Holesize 2 = 0.915 METRIC
T02C0.915
;Holesize 3 = 1.000 METRIC
T03C1.000
;Holesize 4 = 1.050 METRIC
T04C1.050
;Holesize 5 = 1.101 METRIC
T05C1.101
;Holesize 6 = 1.200 METRIC
T06C1.200
;Holesize 7 = 1.400 METRIC
T07C1.400
;Holesize 8 = 1.800 METRIC
T08C1.800
%
G05
G90
T01
X+049598Y+029420
X+062257Y+022291
X+060294Y+001584
X+033604Y+015288
X+036939Y+033802
X+030297Y+031523
X+038214Y+036786
X+053121Y+004729
X+047249Y+030055
X+033291Y+021877
X+023637Y+005153
X+034922Y+021717
X+043975Y+031216
X+030573Y+023393
X+031711Y+011871
X+042976Y+032639
X+028191Y+028752
X+060965Y+031623
X+067873Y+011303
X+036200Y+024978
X+043850Y+035313
X+072280Y+023736
X+031335Y+016812
X+037053Y+020375
X+037622Y+014599
X+065524Y+004310
X+070170Y+004831
X+054315Y+026522
X+061127Y+030035
X+012600Y+012059
X+030650Y+013586
X+060116Y+021450
X+052816Y+021038
X+052522Y+022481
X+048668Y+017515
X+019608Y+035714
X+029344Y+035283
T02
X+028829Y+002032
X+028829Y+004572
X+028829Y+007112
X+028829Y+009652
X+028829Y+012192
X+028829Y+014732
X+028829Y+017272
X+028829Y+019812
X+051689Y+002032
X+051689Y+004572
X+051689Y+007112
X+051689Y+009652
X+051689Y+012192
X+051689Y+014732
X+051689Y+017272
X+051689Y+019812
T03
X+037005Y+002540
X+039005Y+002540
X+041004Y+002540
X+043004Y+002540
X+037005Y+008001
X+039005Y+008001
X+041004Y+008001
X+043004Y+008001
T04
X+018796Y+005715
X+018796Y+003175
X+016256Y+005715
X+016256Y+003175
X+013716Y+005715
X+013716Y+003175
T05
X+068326Y+002032
X+068326Y+004572
X+068326Y+007112
X+068326Y+009652
X+024511Y+011811
X+021971Y+011811
X+024511Y+014351
X+021971Y+014351
X+024511Y+016891
X+021971Y+016891
X+024511Y+019431
X+021971Y+019431
X+024511Y+021971
X+021971Y+021971
X+024511Y+024511
X+021971Y+024511
T06
X+069723Y+032258
X+069723Y+029718
X+069723Y+027178
X+008255Y+036830
X+005715Y+036830
T07
X+075946Y+036830
X+078486Y+036830
X+073406Y+036830
T08
X+006859Y+007240
X+006859Y+012320
X+006857Y+017398
X+006859Y+022480
X+006859Y+027560
X+006856Y+032637
X+078484Y+031494
X+078484Y+026414
X+078486Y+021336
X+078484Y+016254
X+078484Y+011174
X+078487Y+006097
M30
