G04 Layer: BottomLayer*
G04 EasyEDA v6.4.7, 2020-12-07T12:31:00+11:00*
G04 abd5dd9122e84a36b54d064553817704,febe97c2bcdd4f57a3b586bf34626918,10*
G04 Gerber Generator version 0.2*
G04 Scale: 100 percent, Rotated: No, Reflected: No *
G04 Dimensions in millimeters *
G04 leading zeros omitted , absolute positions ,3 integer and 3 decimal *
%FSLAX33Y33*%
%MOMM*%
G90*
D02*

%ADD11C,0.259994*%
%ADD14C,0.610006*%
%ADD29C,1.524000*%
%ADD30R,1.699997X1.699997*%
%ADD31C,1.699997*%
%ADD32C,1.799996*%
%ADD34C,1.599997*%
%ADD35C,2.800096*%
%ADD36R,1.699997X1.574800*%
%ADD37R,1.799996X1.574800*%
%ADD39C,1.999996*%

%LPD*%
G54D11*
G01X78486Y36830D02*
G01X76944Y38371D01*
G01X72189Y38371D01*
G01X71071Y37254D01*
G01X71071Y29334D01*
G01X69992Y28257D01*
G01X69723Y28257D01*
G01X69723Y27178D02*
G01X69723Y28257D01*
G01X73406Y35288D02*
G01X74691Y35288D01*
G01X78486Y31493D01*
G01X73406Y36830D02*
G01X73406Y35288D01*
G01X16256Y3175D02*
G01X16256Y5715D01*
G01X62257Y22291D02*
G01X55963Y22291D01*
G01X54569Y23685D01*
G01X49598Y29420D02*
G01X49598Y28656D01*
G01X54569Y23685D01*
G01X54569Y23685D02*
G01X52768Y21884D01*
G01X52257Y21884D01*
G01X50591Y20220D01*
G01X50591Y16687D01*
G01X51277Y16002D01*
G01X51920Y16002D01*
G01X60294Y7627D01*
G01X60294Y1584D01*
G01X36939Y33802D02*
G01X32585Y29448D01*
G01X32585Y19563D01*
G01X33604Y18547D01*
G01X33604Y15288D01*
G01X30297Y31523D02*
G01X33794Y31523D01*
G01X38668Y36395D01*
G01X65585Y36395D01*
G01X69723Y32258D01*
G01X21971Y14351D02*
G01X23241Y15621D01*
G01X23241Y25400D01*
G01X34627Y36786D01*
G01X38214Y36786D01*
G01X38214Y36786D01*
G01X51689Y14732D02*
G01X53121Y13299D01*
G01X53121Y4729D01*
G01X39004Y8001D02*
G01X39004Y2540D01*
G01X51689Y9652D02*
G01X46995Y14345D01*
G01X46995Y29801D01*
G01X47249Y30055D01*
G01X47249Y30055D02*
G01X47249Y32877D01*
G01X44152Y35974D01*
G01X43619Y35974D01*
G01X33291Y25646D01*
G01X33291Y21877D01*
G01X37005Y2540D02*
G01X36459Y3086D01*
G01X25702Y3086D01*
G01X23637Y5153D01*
G01X37005Y2540D02*
G01X37005Y8001D01*
G01X37005Y8001D02*
G01X34922Y10083D01*
G01X34922Y21717D01*
G01X34922Y21717D02*
G01X43975Y30769D01*
G01X43975Y31216D01*
G01X13716Y3175D02*
G01X13716Y5715D01*
G01X28829Y19812D02*
G01X28829Y21648D01*
G01X30573Y23393D01*
G01X41005Y2540D02*
G01X41005Y8001D01*
G01X28829Y19812D02*
G01X29778Y19812D01*
G01X32354Y17236D01*
G01X32354Y15814D01*
G01X31711Y15171D01*
G01X31711Y11871D01*
G01X28829Y7112D02*
G01X34231Y12514D01*
G01X34231Y23893D01*
G01X42976Y32639D01*
G01X28191Y28752D02*
G01X31950Y24993D01*
G01X31950Y18237D01*
G01X32778Y17411D01*
G01X32778Y12082D01*
G01X29075Y8382D01*
G01X28425Y8382D01*
G01X27749Y7706D01*
G01X27749Y5651D01*
G01X28829Y4572D01*
G01X60965Y31623D02*
G01X67873Y24714D01*
G01X67873Y11303D01*
G01X43850Y35313D02*
G01X43850Y32628D01*
G01X36200Y24978D01*
G01X43004Y8001D02*
G01X43004Y2540D01*
G01X18796Y5715D02*
G01X24511Y11430D01*
G01X24511Y11811D01*
G01X75946Y36830D02*
G01X80197Y32578D01*
G01X80197Y28127D01*
G01X78486Y26413D01*
G01X18796Y3175D02*
G01X18796Y4853D01*
G01X18796Y4853D02*
G01X18796Y5715D01*
G01X18796Y4853D02*
G01X18796Y4861D01*
G01X14386Y9271D01*
G01X9908Y9271D01*
G01X6860Y12319D01*
G01X6860Y12319D02*
G01X6860Y15671D01*
G01X6858Y17399D02*
G01X6858Y15671D01*
G01X6860Y15671D01*
G01X6860Y15671D02*
G01X7668Y15671D01*
G01X8933Y16934D01*
G01X8933Y30561D01*
G01X6858Y32636D01*
G01X68326Y2032D02*
G01X69469Y2032D01*
G01X72280Y23736D02*
G01X75806Y23736D01*
G01X78486Y26413D01*
G01X72280Y23736D02*
G01X72280Y4843D01*
G01X69469Y2032D01*
G01X68326Y2032D02*
G01X66929Y2032D01*
G01X51689Y17272D01*
G01X28829Y9652D02*
G01X30053Y10876D01*
G01X30053Y13835D01*
G01X30228Y14008D01*
G01X30228Y15704D01*
G01X31335Y16812D01*
G01X24511Y24511D02*
G01X24511Y21971D01*
G01X24511Y21971D02*
G01X24511Y19431D01*
G01X24511Y19431D02*
G01X24511Y16891D01*
G01X37053Y20375D02*
G01X37622Y19806D01*
G01X37622Y14599D01*
G01X68326Y7112D02*
G01X65524Y4310D01*
G01X51689Y19812D02*
G01X58166Y19812D01*
G01X68326Y9652D01*
G01X68326Y9652D02*
G01X68531Y9855D01*
G01X68531Y28524D01*
G01X69723Y29718D01*
G01X70170Y4831D02*
G01X70170Y7807D01*
G01X68326Y9652D01*
G01X54315Y26522D02*
G01X57828Y30035D01*
G01X61127Y30035D01*
G01X12600Y12059D02*
G01X13520Y12976D01*
G01X25585Y12976D01*
G01X28392Y15786D01*
G01X29377Y15786D01*
G01X31132Y17541D01*
G01X31452Y17541D01*
G01X31932Y17061D01*
G01X31932Y16202D01*
G01X30650Y14919D01*
G01X30650Y13586D01*
G01X52816Y21038D02*
G01X59705Y21038D01*
G01X60116Y21450D01*
G01X52522Y22481D02*
G01X52242Y22481D01*
G01X48668Y18907D01*
G01X48668Y17515D01*
G01X29344Y35283D02*
G01X28915Y35714D01*
G01X19608Y35714D01*
G01X19608Y35714D01*
G54D29*
G01X28829Y2032D03*
G01X28829Y4572D03*
G01X28829Y7112D03*
G01X28829Y9652D03*
G01X28829Y12192D03*
G01X28829Y14732D03*
G01X28829Y17272D03*
G01X28829Y19812D03*
G01X51689Y2032D03*
G01X51689Y4572D03*
G01X51689Y7112D03*
G01X51689Y9652D03*
G01X51689Y12192D03*
G01X51689Y14732D03*
G01X51689Y17272D03*
G01X51689Y19812D03*
G54D30*
G01X68326Y2032D03*
G54D31*
G01X68326Y4572D03*
G01X68326Y7112D03*
G01X68326Y9652D03*
G54D32*
G01X18796Y5715D03*
G01X18796Y3175D03*
G01X16256Y5715D03*
G01X16256Y3175D03*
G01X13716Y5715D03*
G36*
G01X12816Y4074D02*
G01X14615Y4074D01*
G01X14615Y2275D01*
G01X12816Y2275D01*
G01X12816Y4074D01*
G37*
G54D34*
G01X37005Y2540D03*
G01X39005Y2540D03*
G01X41004Y2540D03*
G01X43004Y2540D03*
G01X37005Y8001D03*
G01X39005Y8001D03*
G01X41004Y8001D03*
G01X43004Y8001D03*
G54D35*
G01X6859Y7240D03*
G01X6859Y12320D03*
G01X6857Y17398D03*
G01X6859Y22480D03*
G01X6859Y27560D03*
G01X6856Y32637D03*
G01X78484Y31494D03*
G01X78484Y26414D03*
G01X78486Y21336D03*
G01X78484Y16254D03*
G01X78484Y11174D03*
G01X78487Y6097D03*
G54D31*
G01X24511Y11811D03*
G01X21971Y11811D03*
G01X24511Y14351D03*
G01X21971Y14351D03*
G01X24511Y16891D03*
G01X21971Y16891D03*
G01X24511Y19431D03*
G01X21971Y19431D03*
G01X24511Y21971D03*
G01X21971Y21971D03*
G01X24511Y24511D03*
G54D36*
G01X21971Y24511D03*
G54D32*
G01X69723Y32258D03*
G01X69723Y29718D03*
G54D37*
G01X69723Y27178D03*
G36*
G01X72405Y38079D02*
G01X74406Y38079D01*
G01X74406Y35580D01*
G01X72405Y35580D01*
G01X72405Y38079D01*
G37*
G54D32*
G01X8255Y36830D03*
G36*
G01X4815Y37729D02*
G01X6614Y37729D01*
G01X6614Y35930D01*
G01X4815Y35930D01*
G01X4815Y37729D01*
G37*
G54D14*
G01X49598Y29420D03*
G01X62257Y22291D03*
G01X60294Y1584D03*
G01X33604Y15288D03*
G01X36939Y33802D03*
G01X30297Y31523D03*
G01X38214Y36786D03*
G01X53121Y4729D03*
G01X47249Y30055D03*
G01X33291Y21877D03*
G01X23637Y5153D03*
G01X34922Y21717D03*
G01X43975Y31216D03*
G01X30573Y23393D03*
G01X31711Y11871D03*
G01X42976Y32639D03*
G01X28191Y28752D03*
G01X60965Y31623D03*
G01X67873Y11303D03*
G01X36200Y24978D03*
G01X43850Y35313D03*
G01X72280Y23736D03*
G01X31335Y16812D03*
G01X37053Y20375D03*
G01X37622Y14599D03*
G01X65524Y4310D03*
G01X70170Y4831D03*
G01X54315Y26522D03*
G01X61127Y30035D03*
G01X12600Y12059D03*
G01X30650Y13586D03*
G01X60116Y21450D03*
G01X52816Y21038D03*
G01X52522Y22481D03*
G01X48668Y17515D03*
G01X19608Y35714D03*
G01X29344Y35283D03*
G54D39*
G01X75946Y37080D02*
G01X75946Y36580D01*
G01X78486Y37080D02*
G01X78486Y36580D01*
M00*
M02*
