G04 Layer: TopSolderMaskLayer*
G04 EasyEDA v6.4.7, 2020-12-07T12:31:00+11:00*
G04 abd5dd9122e84a36b54d064553817704,febe97c2bcdd4f57a3b586bf34626918,10*
G04 Gerber Generator version 0.2*
G04 Scale: 100 percent, Rotated: No, Reflected: No *
G04 Dimensions in millimeters *
G04 leading zeros omitted , absolute positions ,3 integer and 3 decimal *
%FSLAX33Y33*%
%MOMM*%
G90*
D02*

%ADD48C,0.803199*%
%ADD49C,2.203196*%
%ADD50C,1.727200*%
%ADD54C,1.903197*%
%ADD55C,2.003196*%
%ADD57C,1.803197*%
%ADD58C,3.003296*%

%LPD*%
G54D48*
G01X56844Y28829D02*
G01X55144Y28829D01*
G01X56844Y30099D02*
G01X55144Y30099D01*
G01X56844Y31369D02*
G01X55144Y31369D01*
G01X56844Y32639D02*
G01X55144Y32639D01*
G01X56844Y33909D02*
G01X55144Y33909D01*
G01X56844Y35179D02*
G01X55144Y35179D01*
G01X56844Y36449D02*
G01X55144Y36449D01*
G01X56844Y37719D02*
G01X55144Y37719D01*
G01X46455Y28829D02*
G01X44755Y28829D01*
G01X46455Y30099D02*
G01X44755Y30099D01*
G01X46455Y31369D02*
G01X44755Y31369D01*
G01X46455Y32639D02*
G01X44755Y32639D01*
G01X46455Y33909D02*
G01X44755Y33909D01*
G01X46455Y35179D02*
G01X44755Y35179D01*
G01X46455Y36449D02*
G01X44755Y36449D01*
G01X46455Y37719D02*
G01X44755Y37719D01*
G01X65728Y11303D02*
G01X64028Y11303D01*
G01X65728Y12573D02*
G01X64028Y12573D01*
G01X65728Y13843D02*
G01X64028Y13843D01*
G01X65728Y15113D02*
G01X64028Y15113D01*
G01X65728Y16383D02*
G01X64028Y16383D01*
G01X65728Y17653D02*
G01X64028Y17653D01*
G01X65728Y18923D02*
G01X64028Y18923D01*
G01X65728Y20193D02*
G01X64028Y20193D01*
G01X65728Y21463D02*
G01X64028Y21463D01*
G01X57129Y11303D02*
G01X55429Y11303D01*
G01X57129Y12573D02*
G01X55429Y12573D01*
G01X57129Y13843D02*
G01X55429Y13843D01*
G01X57129Y15113D02*
G01X55429Y15113D01*
G01X57129Y16383D02*
G01X55429Y16383D01*
G01X57129Y17653D02*
G01X55429Y17653D01*
G01X57129Y18923D02*
G01X55429Y18923D01*
G01X57129Y20193D02*
G01X55429Y20193D01*
G01X57129Y21463D02*
G01X55429Y21463D01*
G01X32512Y12116D02*
G01X32512Y13816D01*
G01X33782Y12116D02*
G01X33782Y13816D01*
G01X35052Y12116D02*
G01X35052Y13816D01*
G01X36322Y12116D02*
G01X36322Y13816D01*
G01X37592Y12116D02*
G01X37592Y13816D01*
G01X38862Y12116D02*
G01X38862Y13816D01*
G01X40132Y12116D02*
G01X40132Y13816D01*
G01X41402Y12116D02*
G01X41402Y13816D01*
G01X32512Y22505D02*
G01X32512Y24205D01*
G01X33782Y22505D02*
G01X33782Y24205D01*
G01X35052Y22505D02*
G01X35052Y24205D01*
G01X36322Y22505D02*
G01X36322Y24205D01*
G01X37592Y22505D02*
G01X37592Y24205D01*
G01X38862Y22505D02*
G01X38862Y24205D01*
G01X40132Y22505D02*
G01X40132Y24205D01*
G01X41402Y22505D02*
G01X41402Y24205D01*
G01X17900Y22225D02*
G01X18820Y22225D01*
G01X17900Y23495D02*
G01X18820Y23495D01*
G01X17900Y24765D02*
G01X18820Y24765D01*
G01X17900Y26035D02*
G01X18820Y26035D01*
G01X12421Y22225D02*
G01X13341Y22225D01*
G01X12421Y23495D02*
G01X13341Y23495D01*
G01X12421Y24765D02*
G01X13341Y24765D01*
G01X12421Y26035D02*
G01X13341Y26035D01*
G01X17900Y12827D02*
G01X18820Y12827D01*
G01X17900Y14097D02*
G01X18820Y14097D01*
G01X17900Y15367D02*
G01X18820Y15367D01*
G01X17900Y16637D02*
G01X18820Y16637D01*
G01X12421Y12827D02*
G01X13341Y12827D01*
G01X12421Y14097D02*
G01X13341Y14097D01*
G01X12421Y15367D02*
G01X13341Y15367D01*
G01X12421Y16637D02*
G01X13341Y16637D01*
G01X64509Y27813D02*
G01X65429Y27813D01*
G01X64509Y29083D02*
G01X65429Y29083D01*
G01X64509Y30353D02*
G01X65429Y30353D01*
G01X64509Y31623D02*
G01X65429Y31623D01*
G01X59030Y27813D02*
G01X59950Y27813D01*
G01X59030Y29083D02*
G01X59950Y29083D01*
G01X59030Y30353D02*
G01X59950Y30353D01*
G01X59030Y31623D02*
G01X59950Y31623D01*
G54D49*
G01X75946Y37080D02*
G01X75946Y36580D01*
G01X78486Y37080D02*
G01X78486Y36580D01*
G54D50*
G01X28829Y2032D03*
G01X28829Y4572D03*
G01X28829Y7112D03*
G01X28829Y9652D03*
G01X28829Y12192D03*
G01X28829Y14732D03*
G01X28829Y17272D03*
G01X28829Y19812D03*
G01X51689Y2032D03*
G01X51689Y4572D03*
G01X51689Y7112D03*
G01X51689Y9652D03*
G01X51689Y12192D03*
G01X51689Y14732D03*
G01X51689Y17272D03*
G01X51689Y19812D03*
G36*
G01X61666Y22689D02*
G01X61666Y23792D01*
G01X62669Y23792D01*
G01X62669Y22689D01*
G01X61666Y22689D01*
G37*
G36*
G01X60266Y22689D02*
G01X60266Y23792D01*
G01X61269Y23792D01*
G01X61269Y22689D01*
G01X60266Y22689D01*
G37*
G36*
G01X24709Y7068D02*
G01X24709Y8171D01*
G01X25712Y8171D01*
G01X25712Y7068D01*
G01X24709Y7068D01*
G37*
G36*
G01X23309Y7068D02*
G01X23309Y8171D01*
G01X24312Y8171D01*
G01X24312Y7068D01*
G01X23309Y7068D01*
G37*
G36*
G01X55303Y5077D02*
G01X55303Y5679D01*
G01X57205Y5679D01*
G01X57205Y5077D01*
G01X55303Y5077D01*
G37*
G36*
G01X55303Y4427D02*
G01X55303Y5031D01*
G01X57205Y5031D01*
G01X57205Y4427D01*
G01X55303Y4427D01*
G37*
G36*
G01X55303Y3776D02*
G01X55303Y4381D01*
G01X57205Y4381D01*
G01X57205Y3776D01*
G01X55303Y3776D01*
G37*
G36*
G01X55303Y3126D02*
G01X55303Y3731D01*
G01X57205Y3731D01*
G01X57205Y3126D01*
G01X55303Y3126D01*
G37*
G36*
G01X55303Y2476D02*
G01X55303Y3081D01*
G01X57205Y3081D01*
G01X57205Y2476D01*
G01X55303Y2476D01*
G37*
G36*
G01X55303Y1826D02*
G01X55303Y2430D01*
G01X57205Y2430D01*
G01X57205Y1826D01*
G01X55303Y1826D01*
G37*
G36*
G01X55303Y1178D02*
G01X55303Y1780D01*
G01X57205Y1780D01*
G01X57205Y1178D01*
G01X55303Y1178D01*
G37*
G36*
G01X60904Y1178D02*
G01X60904Y1780D01*
G01X62806Y1780D01*
G01X62806Y1178D01*
G01X60904Y1178D01*
G37*
G36*
G01X60904Y1826D02*
G01X60904Y2430D01*
G01X62806Y2430D01*
G01X62806Y1826D01*
G01X60904Y1826D01*
G37*
G36*
G01X60904Y2476D02*
G01X60904Y3081D01*
G01X62806Y3081D01*
G01X62806Y2476D01*
G01X60904Y2476D01*
G37*
G36*
G01X60904Y3126D02*
G01X60904Y3731D01*
G01X62806Y3731D01*
G01X62806Y3126D01*
G01X60904Y3126D01*
G37*
G36*
G01X60904Y3776D02*
G01X60904Y4381D01*
G01X62806Y4381D01*
G01X62806Y3776D01*
G01X60904Y3776D01*
G37*
G36*
G01X60904Y4427D02*
G01X60904Y5031D01*
G01X62806Y5031D01*
G01X62806Y4427D01*
G01X60904Y4427D01*
G37*
G36*
G01X60904Y5077D02*
G01X60904Y5679D01*
G01X62806Y5679D01*
G01X62806Y5077D01*
G01X60904Y5077D01*
G37*
G36*
G01X67373Y1079D02*
G01X67373Y2984D01*
G01X69278Y2984D01*
G01X69278Y1079D01*
G01X67373Y1079D01*
G37*
G54D54*
G01X68326Y4572D03*
G01X68326Y7112D03*
G01X68326Y9652D03*
G54D55*
G01X18796Y5715D03*
G01X18796Y3175D03*
G01X16256Y5715D03*
G01X16256Y3175D03*
G01X13716Y5715D03*
G36*
G01X12715Y2174D02*
G01X12715Y4175D01*
G01X14716Y4175D01*
G01X14716Y2174D01*
G01X12715Y2174D01*
G37*
G54D57*
G01X37005Y2540D03*
G01X39005Y2540D03*
G01X41004Y2540D03*
G01X43004Y2540D03*
G01X37005Y8001D03*
G01X39005Y8001D03*
G01X41004Y8001D03*
G01X43004Y8001D03*
G54D58*
G01X6859Y7240D03*
G01X6859Y12320D03*
G01X6857Y17398D03*
G01X6859Y22480D03*
G01X6859Y27560D03*
G01X6856Y32637D03*
G01X78484Y31494D03*
G01X78484Y26414D03*
G01X78486Y21336D03*
G01X78484Y16254D03*
G01X78484Y11174D03*
G01X78487Y6097D03*
G54D54*
G01X24511Y11811D03*
G01X21971Y11811D03*
G01X24511Y14351D03*
G01X21971Y14351D03*
G01X24511Y16891D03*
G01X21971Y16891D03*
G01X24511Y19431D03*
G01X21971Y19431D03*
G01X24511Y21971D03*
G01X21971Y21971D03*
G01X24511Y24511D03*
G36*
G01X21018Y23622D02*
G01X21018Y25400D01*
G01X22923Y25400D01*
G01X22923Y23622D01*
G01X21018Y23622D01*
G37*
G36*
G01X26555Y29893D02*
G01X26555Y31097D01*
G01X28308Y31097D01*
G01X28308Y29893D01*
G01X26555Y29893D01*
G37*
G36*
G01X26555Y31894D02*
G01X26555Y33098D01*
G01X28308Y33098D01*
G01X28308Y31894D01*
G01X26555Y31894D01*
G37*
G36*
G01X36339Y37223D02*
G01X36339Y38976D01*
G01X37543Y38976D01*
G01X37543Y37223D01*
G01X36339Y37223D01*
G37*
G36*
G01X34338Y37223D02*
G01X34338Y38976D01*
G01X35542Y38976D01*
G01X35542Y37223D01*
G01X34338Y37223D01*
G37*
G36*
G01X30746Y35608D02*
G01X30746Y36812D01*
G01X32499Y36812D01*
G01X32499Y35608D01*
G01X30746Y35608D01*
G37*
G36*
G01X30746Y37609D02*
G01X30746Y38813D01*
G01X32499Y38813D01*
G01X32499Y37609D01*
G01X30746Y37609D01*
G37*
G36*
G01X28994Y33916D02*
G01X28994Y34919D01*
G01X29697Y34919D01*
G01X29697Y33916D01*
G01X28994Y33916D01*
G37*
G36*
G01X29992Y33916D02*
G01X29992Y34919D01*
G01X30695Y34919D01*
G01X30695Y33916D01*
G01X29992Y33916D01*
G37*
G36*
G01X15313Y37094D02*
G01X15313Y38496D01*
G01X18214Y38496D01*
G01X18214Y37094D01*
G01X15313Y37094D01*
G37*
G36*
G01X15313Y33893D02*
G01X15313Y35295D01*
G01X18214Y35295D01*
G01X18214Y33893D01*
G01X15313Y33893D01*
G37*
G36*
G01X14653Y31254D02*
G01X14653Y33007D01*
G01X15857Y33007D01*
G01X15857Y31254D01*
G01X14653Y31254D01*
G37*
G36*
G01X16654Y31254D02*
G01X16654Y33007D01*
G01X17858Y33007D01*
G01X17858Y31254D01*
G01X16654Y31254D01*
G37*
G36*
G01X19006Y32707D02*
G01X19006Y33710D01*
G01X20109Y33710D01*
G01X20109Y32707D01*
G01X19006Y32707D01*
G37*
G36*
G01X19006Y34107D02*
G01X19006Y35110D01*
G01X20109Y35110D01*
G01X20109Y34107D01*
G01X19006Y34107D01*
G37*
G36*
G01X12537Y37094D02*
G01X12537Y38496D01*
G01X14640Y38496D01*
G01X14640Y37094D01*
G01X12537Y37094D01*
G37*
G36*
G01X12537Y33893D02*
G01X12537Y35295D01*
G01X14640Y35295D01*
G01X14640Y33893D01*
G01X12537Y33893D01*
G37*
G36*
G01X19006Y28135D02*
G01X19006Y29138D01*
G01X20109Y29138D01*
G01X20109Y28135D01*
G01X19006Y28135D01*
G37*
G36*
G01X19006Y29535D02*
G01X19006Y30538D01*
G01X20109Y30538D01*
G01X20109Y29535D01*
G01X19006Y29535D01*
G37*
G36*
G01X24015Y29893D02*
G01X24015Y31097D01*
G01X25768Y31097D01*
G01X25768Y29893D01*
G01X24015Y29893D01*
G37*
G36*
G01X24015Y31894D02*
G01X24015Y33098D01*
G01X25768Y33098D01*
G01X25768Y31894D01*
G01X24015Y31894D01*
G37*
G36*
G01X28968Y29893D02*
G01X28968Y31097D01*
G01X30721Y31097D01*
G01X30721Y29893D01*
G01X28968Y29893D01*
G37*
G36*
G01X28968Y31894D02*
G01X28968Y33098D01*
G01X30721Y33098D01*
G01X30721Y31894D01*
G01X28968Y31894D01*
G37*
G36*
G01X23307Y34320D02*
G01X23307Y35524D01*
G01X24058Y35524D01*
G01X24058Y34320D01*
G01X23307Y34320D01*
G37*
G36*
G01X22357Y34320D02*
G01X22357Y35524D01*
G01X23108Y35524D01*
G01X23108Y34320D01*
G01X22357Y34320D01*
G37*
G36*
G01X21407Y34320D02*
G01X21407Y35524D01*
G01X22158Y35524D01*
G01X22158Y34320D01*
G01X21407Y34320D01*
G37*
G36*
G01X21407Y37119D02*
G01X21407Y38323D01*
G01X22158Y38323D01*
G01X22158Y37119D01*
G01X21407Y37119D01*
G37*
G36*
G01X22357Y37119D02*
G01X22357Y38323D01*
G01X23108Y38323D01*
G01X23108Y37119D01*
G01X22357Y37119D01*
G37*
G36*
G01X23307Y37119D02*
G01X23307Y38323D01*
G01X24058Y38323D01*
G01X24058Y37119D01*
G01X23307Y37119D01*
G37*
G36*
G01X25745Y37094D02*
G01X25745Y38496D01*
G01X27848Y38496D01*
G01X27848Y37094D01*
G01X25745Y37094D01*
G37*
G36*
G01X25745Y33893D02*
G01X25745Y35295D01*
G01X27848Y35295D01*
G01X27848Y33893D01*
G01X25745Y33893D01*
G37*
G36*
G01X20919Y28051D02*
G01X20919Y29453D01*
G01X23022Y29453D01*
G01X23022Y28051D01*
G01X20919Y28051D01*
G37*
G36*
G01X20919Y31252D02*
G01X20919Y32654D01*
G01X23022Y32654D01*
G01X23022Y31252D01*
G01X20919Y31252D01*
G37*
G36*
G01X38125Y26822D02*
G01X38125Y28549D01*
G01X39090Y28549D01*
G01X39090Y26822D01*
G01X38125Y26822D01*
G37*
G36*
G01X38125Y34442D02*
G01X38125Y36169D01*
G01X39090Y36169D01*
G01X39090Y34442D01*
G01X38125Y34442D01*
G37*
G36*
G01X39395Y34442D02*
G01X39395Y36169D01*
G01X40360Y36169D01*
G01X40360Y34442D01*
G01X39395Y34442D01*
G37*
G36*
G01X39395Y26822D02*
G01X39395Y28549D01*
G01X40360Y28549D01*
G01X40360Y26822D01*
G01X39395Y26822D01*
G37*
G36*
G01X40665Y26822D02*
G01X40665Y28549D01*
G01X41630Y28549D01*
G01X41630Y26822D01*
G01X40665Y26822D01*
G37*
G36*
G01X40665Y34442D02*
G01X40665Y36169D01*
G01X41630Y36169D01*
G01X41630Y34442D01*
G01X40665Y34442D01*
G37*
G36*
G01X36855Y34442D02*
G01X36855Y36169D01*
G01X37820Y36169D01*
G01X37820Y34442D01*
G01X36855Y34442D01*
G37*
G36*
G01X36855Y26822D02*
G01X36855Y28549D01*
G01X37820Y28549D01*
G01X37820Y26822D01*
G01X36855Y26822D01*
G37*
G36*
G01X35585Y26822D02*
G01X35585Y28549D01*
G01X36550Y28549D01*
G01X36550Y26822D01*
G01X35585Y26822D01*
G37*
G36*
G01X35585Y34442D02*
G01X35585Y36169D01*
G01X36550Y36169D01*
G01X36550Y34442D01*
G01X35585Y34442D01*
G37*
G36*
G01X34315Y34442D02*
G01X34315Y36169D01*
G01X35280Y36169D01*
G01X35280Y34442D01*
G01X34315Y34442D01*
G37*
G36*
G01X34315Y26822D02*
G01X34315Y28549D01*
G01X35280Y28549D01*
G01X35280Y26822D01*
G01X34315Y26822D01*
G37*
G36*
G01X69390Y21602D02*
G01X69390Y23355D01*
G01X70594Y23355D01*
G01X70594Y21602D01*
G01X69390Y21602D01*
G37*
G36*
G01X71391Y21602D02*
G01X71391Y23355D01*
G01X72595Y23355D01*
G01X72595Y21602D01*
G01X71391Y21602D01*
G37*
G36*
G01X69390Y12331D02*
G01X69390Y14084D01*
G01X70594Y14084D01*
G01X70594Y12331D01*
G01X69390Y12331D01*
G37*
G36*
G01X71391Y12331D02*
G01X71391Y14084D01*
G01X72595Y14084D01*
G01X72595Y12331D01*
G01X71391Y12331D01*
G37*
G36*
G01X47835Y9720D02*
G01X47835Y10723D01*
G01X48938Y10723D01*
G01X48938Y9720D01*
G01X47835Y9720D01*
G37*
G36*
G01X47835Y11120D02*
G01X47835Y12123D01*
G01X48938Y12123D01*
G01X48938Y11120D01*
G01X47835Y11120D01*
G37*
G36*
G01X47708Y4513D02*
G01X47708Y5516D01*
G01X48811Y5516D01*
G01X48811Y4513D01*
G01X47708Y4513D01*
G37*
G36*
G01X47708Y5913D02*
G01X47708Y6916D01*
G01X48811Y6916D01*
G01X48811Y5913D01*
G01X47708Y5913D01*
G37*
G36*
G01X70576Y1000D02*
G01X70576Y2402D01*
G01X72679Y2402D01*
G01X72679Y1000D01*
G01X70576Y1000D01*
G37*
G36*
G01X70576Y4201D02*
G01X70576Y5603D01*
G01X72679Y5603D01*
G01X72679Y4201D01*
G01X70576Y4201D01*
G37*
G36*
G01X65112Y37254D02*
G01X65112Y38757D01*
G01X66715Y38757D01*
G01X66715Y37254D01*
G01X65112Y37254D01*
G37*
G36*
G01X65112Y35153D02*
G01X65112Y36657D01*
G01X66715Y36657D01*
G01X66715Y35153D01*
G01X65112Y35153D01*
G37*
G36*
G01X58381Y37254D02*
G01X58381Y38757D01*
G01X59984Y38757D01*
G01X59984Y37254D01*
G01X58381Y37254D01*
G37*
G36*
G01X58381Y35153D02*
G01X58381Y36657D01*
G01X59984Y36657D01*
G01X59984Y35153D01*
G01X58381Y35153D01*
G37*
G36*
G01X71340Y14523D02*
G01X71340Y16728D01*
G01X72844Y16728D01*
G01X72844Y14523D01*
G01X71340Y14523D01*
G37*
G36*
G01X69141Y18323D02*
G01X69141Y20528D01*
G01X70645Y20528D01*
G01X70645Y18323D01*
G01X69141Y18323D01*
G37*
G36*
G01X71340Y18323D02*
G01X71340Y20528D01*
G01X72844Y20528D01*
G01X72844Y18323D01*
G01X71340Y18323D01*
G37*
G36*
G01X69141Y14523D02*
G01X69141Y16728D01*
G01X70645Y16728D01*
G01X70645Y14523D01*
G01X69141Y14523D01*
G37*
G36*
G01X62567Y36263D02*
G01X62567Y37266D01*
G01X63670Y37266D01*
G01X63670Y36263D01*
G01X62567Y36263D01*
G37*
G36*
G01X62567Y37663D02*
G01X62567Y38666D01*
G01X63670Y38666D01*
G01X63670Y37663D01*
G01X62567Y37663D01*
G37*
G36*
G01X60789Y36263D02*
G01X60789Y37266D01*
G01X61892Y37266D01*
G01X61892Y36263D01*
G01X60789Y36263D01*
G37*
G36*
G01X60789Y37663D02*
G01X60789Y38666D01*
G01X61892Y38666D01*
G01X61892Y37663D01*
G01X60789Y37663D01*
G37*
G36*
G01X25288Y3573D02*
G01X25288Y4777D01*
G01X25989Y4777D01*
G01X25989Y3573D01*
G01X25288Y3573D01*
G37*
G36*
G01X24287Y3573D02*
G01X24287Y4777D01*
G01X24988Y4777D01*
G01X24988Y3573D01*
G01X24287Y3573D01*
G37*
G36*
G01X23286Y3573D02*
G01X23286Y4777D01*
G01X23987Y4777D01*
G01X23987Y3573D01*
G01X23286Y3573D01*
G37*
G36*
G01X23286Y1572D02*
G01X23286Y2776D01*
G01X23987Y2776D01*
G01X23987Y1572D01*
G01X23286Y1572D01*
G37*
G36*
G01X24287Y1572D02*
G01X24287Y2776D01*
G01X24988Y2776D01*
G01X24988Y1572D01*
G01X24287Y1572D01*
G37*
G36*
G01X25288Y1572D02*
G01X25288Y2776D01*
G01X25989Y2776D01*
G01X25989Y1572D01*
G01X25288Y1572D01*
G37*
G54D55*
G01X69723Y32258D03*
G01X69723Y29718D03*
G36*
G01X68722Y26289D02*
G01X68722Y28067D01*
G01X70723Y28067D01*
G01X70723Y26289D01*
G01X68722Y26289D01*
G37*
G36*
G01X72303Y35478D02*
G01X72303Y38181D01*
G01X74508Y38181D01*
G01X74508Y35478D01*
G01X72303Y35478D01*
G37*
G01X8255Y36830D03*
G36*
G01X4714Y35829D02*
G01X4714Y37830D01*
G01X6715Y37830D01*
G01X6715Y35829D01*
G01X4714Y35829D01*
G37*
G36*
G01X51445Y25364D02*
G01X51445Y27467D01*
G01X52847Y27467D01*
G01X52847Y25364D01*
G01X51445Y25364D01*
G37*
G36*
G01X48244Y25364D02*
G01X48244Y27467D01*
G01X49646Y27467D01*
G01X49646Y25364D01*
G01X48244Y25364D01*
G37*
M00*
M02*
